<mxfile host="65bd71144e">
    <diagram id="Uiq0hf-WbRQ45rUw3dV4" name="Page-1">
        <mxGraphModel dx="1135" dy="511" grid="1" gridSize="10" guides="1" tooltips="1" connect="1" arrows="1" fold="1" page="1" pageScale="1" pageWidth="1000" pageHeight="1200" background="#FFFFFF" math="0" shadow="0">
            <root>
                <mxCell id="0"/>
                <mxCell id="1" parent="0"/>
                <mxCell id="14" style="edgeStyle=none;html=1;rounded=0;curved=0;" edge="1" parent="1" source="2" target="11">
                    <mxGeometry relative="1" as="geometry">
                        <Array as="points">
                            <mxPoint x="330" y="315"/>
                            <mxPoint x="330" y="370"/>
                        </Array>
                    </mxGeometry>
                </mxCell>
                <mxCell id="2" value="" style="rounded=0;whiteSpace=wrap;html=1;" vertex="1" parent="1">
                    <mxGeometry x="40" y="60" width="220" height="510" as="geometry"/>
                </mxCell>
                <mxCell id="8" value="Chat Interface" style="html=1;verticalLabelPosition=bottom;align=center;labelBackgroundColor=#ffffff;verticalAlign=top;strokeWidth=2;strokeColor=#0080F0;shadow=0;dashed=0;shape=mxgraph.ios7.icons.messages;" vertex="1" parent="1">
                    <mxGeometry x="101.69" y="448" width="90" height="62" as="geometry"/>
                </mxCell>
                <mxCell id="3" value="MCP Clients" style="text;strokeColor=none;align=center;fillColor=none;html=1;verticalAlign=middle;whiteSpace=wrap;rounded=0;" vertex="1" parent="1">
                    <mxGeometry x="76.69" y="60" width="140" height="30" as="geometry"/>
                </mxCell>
                <mxCell id="4" value="Web Application" style="outlineConnect=0;dashed=0;verticalLabelPosition=bottom;verticalAlign=top;align=center;html=1;shape=mxgraph.aws3.workspaces;fillColor=#D16A28;gradientColor=#F58435;gradientDirection=north;" vertex="1" parent="1">
                    <mxGeometry x="105.69" y="130" width="82.5" height="94.5" as="geometry"/>
                </mxCell>
                <mxCell id="5" value="Desktop Application" style="verticalLabelPosition=bottom;aspect=fixed;html=1;shape=mxgraph.salesforce.web;" vertex="1" parent="1">
                    <mxGeometry x="105.69" y="280" width="88.61" height="70" as="geometry"/>
                </mxCell>
                <mxCell id="6" value="" style="html=1;dashed=0;aspect=fixed;verticalLabelPosition=bottom;verticalAlign=top;align=center;shape=mxgraph.gmdl.chat;strokeColor=none;fillColor=#737373;shadow=0;sketch=0;" vertex="1" parent="1">
                    <mxGeometry x="96.69" y="480" width="30" height="30" as="geometry"/>
                </mxCell>
                <mxCell id="10" value="AWS Account" style="points=[[0,0],[0.25,0],[0.5,0],[0.75,0],[1,0],[1,0.25],[1,0.5],[1,0.75],[1,1],[0.75,1],[0.5,1],[0.25,1],[0,1],[0,0.75],[0,0.5],[0,0.25]];outlineConnect=0;gradientColor=none;html=1;whiteSpace=wrap;fontSize=12;fontStyle=0;container=1;pointerEvents=0;collapsible=0;recursiveResize=0;shape=mxgraph.aws4.group;grIcon=mxgraph.aws4.group_account;strokeColor=#CD2264;fillColor=none;verticalAlign=top;align=left;spacingLeft=30;fontColor=#CD2264;dashed=0;" vertex="1" parent="1">
                    <mxGeometry x="356.69" y="240" width="623.31" height="330" as="geometry"/>
                </mxCell>
                <mxCell id="15" style="edgeStyle=none;html=1;" edge="1" parent="10" source="11" target="12">
                    <mxGeometry relative="1" as="geometry"/>
                </mxCell>
                <mxCell id="11" value="API Gateway" style="sketch=0;outlineConnect=0;fontColor=#232F3E;gradientColor=none;fillColor=#E7157B;strokeColor=none;dashed=0;verticalLabelPosition=bottom;verticalAlign=top;align=center;html=1;fontSize=12;fontStyle=0;aspect=fixed;pointerEvents=1;shape=mxgraph.aws4.endpoint;" vertex="1" parent="10">
                    <mxGeometry x="60" y="90" width="78" height="78" as="geometry"/>
                </mxCell>
                <mxCell id="17" style="edgeStyle=none;html=1;" edge="1" parent="10" source="12" target="16">
                    <mxGeometry relative="1" as="geometry"/>
                </mxCell>
                <mxCell id="19" style="edgeStyle=none;html=1;" edge="1" parent="10" source="12" target="18">
                    <mxGeometry relative="1" as="geometry"/>
                </mxCell>
                <mxCell id="12" value="Lambda handler" style="sketch=0;points=[[0,0,0],[0.25,0,0],[0.5,0,0],[0.75,0,0],[1,0,0],[0,1,0],[0.25,1,0],[0.5,1,0],[0.75,1,0],[1,1,0],[0,0.25,0],[0,0.5,0],[0,0.75,0],[1,0.25,0],[1,0.5,0],[1,0.75,0]];outlineConnect=0;fontColor=#232F3E;fillColor=#ED7100;strokeColor=#ffffff;dashed=0;verticalLabelPosition=bottom;verticalAlign=top;align=center;html=1;fontSize=12;fontStyle=0;aspect=fixed;shape=mxgraph.aws4.resourceIcon;resIcon=mxgraph.aws4.lambda;" vertex="1" parent="10">
                    <mxGeometry x="216" y="90" width="78" height="78" as="geometry"/>
                </mxCell>
                <mxCell id="35" style="edgeStyle=none;html=1;entryX=0;entryY=0.5;entryDx=0;entryDy=0;" edge="1" parent="10" source="16" target="26">
                    <mxGeometry relative="1" as="geometry"/>
                </mxCell>
                <mxCell id="16" value="Bedrock" style="sketch=0;points=[[0,0,0],[0.25,0,0],[0.5,0,0],[0.75,0,0],[1,0,0],[0,1,0],[0.25,1,0],[0.5,1,0],[0.75,1,0],[1,1,0],[0,0.25,0],[0,0.5,0],[0,0.75,0],[1,0.25,0],[1,0.5,0],[1,0.75,0]];outlineConnect=0;fontColor=#232F3E;fillColor=#01A88D;strokeColor=#ffffff;dashed=0;verticalLabelPosition=bottom;verticalAlign=top;align=center;html=1;fontSize=12;fontStyle=0;aspect=fixed;shape=mxgraph.aws4.resourceIcon;resIcon=mxgraph.aws4.bedrock;" vertex="1" parent="10">
                    <mxGeometry x="360" y="90" width="78" height="78" as="geometry"/>
                </mxCell>
                <mxCell id="18" value="DynamoDB" style="sketch=0;points=[[0,0,0],[0.25,0,0],[0.5,0,0],[0.75,0,0],[1,0,0],[0,1,0],[0.25,1,0],[0.5,1,0],[0.75,1,0],[1,1,0],[0,0.25,0],[0,0.5,0],[0,0.75,0],[1,0.25,0],[1,0.5,0],[1,0.75,0]];outlineConnect=0;fontColor=#232F3E;fillColor=#C925D1;strokeColor=#ffffff;dashed=0;verticalLabelPosition=bottom;verticalAlign=top;align=center;html=1;fontSize=12;fontStyle=0;aspect=fixed;shape=mxgraph.aws4.resourceIcon;resIcon=mxgraph.aws4.dynamodb;" vertex="1" parent="10">
                    <mxGeometry x="216" y="230" width="78" height="78" as="geometry"/>
                </mxCell>
                <mxCell id="26" value="" style="rounded=0;whiteSpace=wrap;html=1;" vertex="1" parent="10">
                    <mxGeometry x="473.31" y="20" width="130" height="220" as="geometry"/>
                </mxCell>
                <mxCell id="28" value="Amazon Nova Family" style="shape=image;imageAspect=0;aspect=fixed;verticalLabelPosition=bottom;verticalAlign=top;image=data:image/png,iVBORw0KGgoAAAANSUhEUgAAAMAAAADACAIAAADdvvtQAAAAAXNSR0IArs4c6QAAAARnQU1BAACxjwv8YQUAAAAJcEhZcwAADsMAAA7DAcdvqGQAABh5SURBVHhe7d3vj1zVeQdw/1FAgwtJCG3UVq0sRXKREDHpm0pEVKiiL5x3kVFQUOXWVvsCOcJyRRCyUBKBwM4PI8sQiQps4ywoArtWwEp2vR6vvbter41ra/M989x55tnnnHvn3HvPOfeM7/3qq9HY7Owuux8/97kzs7M7toZYWVvaWji4dXT31uFHTE88vfX+j8xfDrEzANK5cLRwY/fs4eJthnAGQNsCIgoN99W/NB0MqQyApvnkuEYjS4DQS+8Vbz8EGQBNw0uPKtOh4s2GcAZARS59rN1wFSB0dKa41ZABUBGcZyk3qHLD/c2zxa2GDIBMcIqu6FCVG+6b3966c6O4bc8zADJxrs8KDfX1yZXhdIwyADJxrs+Mhst6cOXE08Vte54BkNmIZ9KRhR7qsEojAyDH+qzEyLIedOFg8R76nL4DUuuz4qIq9aDDKo30HRCvz8qKqqKDHt1peuFo8X56m74DkuuzQiOr9KAEaLhDqNeAeH1WXLiAQpeyRIfb81W614CwPksuzlbQofZ8le4vIOy/2IIVF1lJh6rooD/b2fdVur+AsD4rMarVdFDoofZ5le4voBNPazFUcKFLWeWGr1D7vEr3FNDq+W1o7JbpITd0KdvbVbqngCrWZ0mHKvVQlR60t6t0TwEd3a3dcOvS+cW4vV2lowO69LF55kNWPxNTtj5LOrYe2w1foWa1St9e3Fo+lOLAGhcQvlUvfd300D9mZAg7r0TjowdlOlymQ/3w+8X77zzQc27X1kcPma68XfxlpEQExHqyMoTPgfU46aA2HbpkN7aetx82xW7eeaSeBIZiAVJ6qDkYstdnpQeVeqish6r0oATo/E+Kj9JVbD3o2ZiGogBy6qF2bkitz7XcUBUdlPSg3a7SZXqokQyFB1Shh9qhIXxuTjpc6QZXsC2hig5fkXS4Xf3YYbWeeIYCA5qpB/3vRzszROszWakYP8QFV/C/g3Mr+iOV6Tj1oJ2s0k49qNTzu3GDGwoJyEcPCkCdGMJXmdBU0EGJDorjEUKPudp6ygChiY9iPrOH9MQwFAxQLT2dGOL1WeqxAVHBBW9PWTio6aAKDXpsXFxJuUr7zB4FKKyhMIDgQEGxK+lwUxrC+qzoUJUbLp+Tj87M1oMSIJRGV4J46kGlnk8eNL19ungnLRMG0NnDmouqciObxhAGpHKDSjpKj/qxL2w2nnqoCe4CtvUoNFyphwEt7S/eT8sEm0BwoNBwlRi7CQyd2juDDl1y1ZDHKu2vB429Sjc4cgEN6/l8l3kPQRJsB6owpLg4i+NLPEP4Ykk9NiBU6kHV15dWaeUGVW5k463STj2KDir1MJ2wepBggBDbkFJS3XiGcIStoMNlPbw+y2CVVnq4ig410irt1IN2ogcJCQhRhhSRmY1kiNdnJYYKMXTJdW4w+EvlBlVoZGOs0lnNHkpgQAgbUjg8G9zQpfdK9Ug0VGw5736nuKEdbDaEZqYeathVOkM9SHhACBlSMjx7+JHAhnA8UoAARV6XBaCK+0iwShMdHz1owFU6Tz1IFEBIM0P0Y34BDeGrVjZ76FKWzrMqPi6t0kpJWU99zTTIKu3Ug1brQWPrQWIBQhoYYkChDH1y3EDxOX6Rnt/vK25YllN7NRRnSQ/afpX21IPadGLrQSICQvwNSTrc9oZw0FFuqE496MytBW+grDjLgPC9bxNbj0LD7UQPEhcQ4mlI0eG2N4QdiNHYdFDWU7E+y/x2j+Yiy3S4jVdpz9kj6STWg0QHhFQbUmLshjVklwF5PsSIo5JCw1V0iu4tblgrc6EHSQEIgQA4UHRQZaWsoQwpNFIP6vkhsBcrN6hGs711V+kGephOSj1IIkCIbUgpqeir2IJDGGJAig46c32Wwfm5vx601ipt61FuqFKPBJRSD5IOEKIMKSUVpefxhDKk6FBrbSpylVZWnPW/Q8g5exQdag56kKSAEDKkfMwsAQplSNFBPddnGb5DSFkpqw9QTz2STrd6kNSAkFqGmA43hqEG99bgJopIdS8cKG5YlnnUg3QACJlpCFDo0tn2hrDxwA0/LtHgS4+9WBGZ2YpV2qkHraBD7VYP0g0gxMdQRYMYIj3NTrMRbDaKSHWXXi9uqOIze2CFLmU714N0BgipMKS4qBYPjrY2tHDQ6Gn81cdao4hU17lKz7UepEtAiNOQ4sIFGrrktjfUMopIdSFDrdJOPajUo+gATT56kI4BIcqQFEMlN/KPU0DjE6gODdVapSFDrtK2HuUGlXS4+ehBugeEsCEJRVW6ITrcDg3VWqVBBGJolXbOHqUHBRe6lHTy0YNkAQghQwoNV+mhkp6fTQx19QX1XKVZCVZpTz0o05GA8tGD5AIIqTDkpMOlhya6MjRzlQYOuqT+do/v7FFuMtSDZAQIsQ0pOlQFCGVDnRzLJBe7yopdRQeVeiSg3PQgeQFC2BCgKEA2Gr7C7WQOVazSyopdRQedIz1IdoAQfJnYUAUgVNKh/qILQ6vntRtUQXHWpkOX86IHyREQQoYq6FClG7qkpj+W2au0suKs1EOVehhQtnqQTAEhbEihkZWAVBPPoc2TbfU46WSuB8kXEEKGJBd5XVbpoQe5Uhq6c8OY8NSj6FDnUQ+SNSAEXz44KHNDVXqo6Q1dONBw9qBSDwPKXw+SOyBEGlJ0UIWG6XCTGRqd0VCcVXRQm8686EHmABDChpQetBoQPWkQt614Lk7AYJVWXFR96MyRHmQ+ACFkiNHYelBJh0qA0AbPOWyQpde1GFmlB3UCmiM9yHwAwvy4cNS87JzTDVXR4RKgN5O8BDg+BFgoN6hEg4ILXc67HiR3QFgsFg6abz/R4VbrgRi+wk3zEuBL+zUdGxB6f+hBMgVEI0e+SrzTDcpo7Eo9KN5hgtirdJkb6lzrQbIDxCPHedrlqUfRoaYBhMhVWuqxAc27HiQXQBg52HOx5ZAb5wkX2gYQaKYJr9L3vR6ke0D4vp7au23kOAEpOlTlBlVoZBMs0RR8IPhQetD7Tw/SGSBzwnLYuJGPdgGKTQed6Yar0HBn/lxf2CwfKqVDDaUH0+7mW/c6JNgBIIwcbMdlD7MrN7YeqkJTQQdNdkciBx/u3C43IKITRM/oh1tfPFAU1zdPFn+fMukAyZHj1CPpcJUbVNKRVWi4yR7KUMEHBRFJJ54eLt4tht/dxXvFG8VPCkBy5Nh0CIoTkKKDKjQoiNClXWDFYp549siACL7NChAu8T1u+Vk59cguP28ObcVbx0xEQPbIsfWQG3npdEOVbggNX1HFiTSWgw7pyODTuH3afD4ojjLtP6uZev74wB3q8q41vHHUgRQeEL5Al94rfjcgtQIQibGr6FCZjqx0A6xYlpOdrneSmXpQBvSnBzepK89cizSQQgLCd45GDtOp1sNtryerkRMv/rNH6ll8aJ2KgXR930bYgRQAEL5t9LCDdNOADkGxASk0VKDBJbAuHLzPRw6npZ7Fv1ihLn1thIF0650w/9paAcJ3jh52UHSoZYBARF6XnUmH3KAYOThQ3vcjhxNED+hMuoiOnlpffWHEv5ixWZoAKhs5qjYdVaUHrdaDAitOrFr+P89dAs4e1mP68JfU0Z5lDKRm/xrrAZo5cuhSdaYbVNKhKjoYOT05VKks7ddcVFvqubzzInX5kU8xkL46e7P4wH7xAsQjp+wVWGSr9VBJjI8eGjn9OVTZWX5ei5H10TOhU6Xn8s7PL+/8DAWjq7s/xUC6t7RZfAaVmQEI/+jf/YH5LhKdNnoAha+oOun0duSo3F4sNRRDz6Qfo2svfjFzILkB4V88TshPPD11w1ViuBV0uAqNooMOI6cshtEh80hFLT0CUG096JVHP0LNQDq+WDaQNKBLH08PVapKjKzSgyo6VAnI1jOMHJ/cPm12ah89bWYP6zH9+v+O+/6NH39mD6QpIJwVH635sqmAIq/LKjqo0oOSG8y5YeTUzd3Fezffure8ay2ZHuroGydXnvgAA6n4PBgQDliKiywrkYUSurRbgYYKNzhU/X7fMHLaBgPp+r4NpUcA0noEoCZ6in7z15tHLtInYACV6YEPurQLJfK6k468lMWhCud0w8gJGB5ILWZPAchHD/XmkU/xoXesLW1Do8pKnJV0pB5ZQkMjpz8PO3QV7CgYSPX1bJ89BZ0qPVcfO4Zis97x/o80GlklRtZfD7byYeSkDAbSrXdujPYsR9WDbrx0eofzXB1VXKiAQpeqyg0KN8PI6Tyr57dWXxiN0YTXg15/8vgO5YYq0aiCC1069QwjJ89gIF17FnPIc2suAFXrufqtn6NNADnpUBnQytsDoFyCb8TGK5cJkIcer9lDegwged+PsqIq6VAVHb6C0taMBatvj5xnFezUawdWwCXskYv1mEMY1hQGVG2oQg+X9HD5rkIMpE5ewbmfESMn/N7DelCzRPNpvOLChRW6lHToksSU0aFL2eGew9ihkTNZmT30FIAKOrX0rDz+hjmNx0fFwivFqEo67IYLJXTJBRS6VOWH2d/9jhlILX8qaogMjRw6b6+vp8nsgZ7ijkT6DM4e1m5QEsNXuFKPs4oOynq4xx4eBlKAYOTQoar2/T0h9CDTB1M/OV68PrwEJPWwG65ygyo3qHIjSz9QMQykBsHIwaGK0HDT6MHifOfcleLzkIAoGAk4dZJuuNV6lBuuQiNLgLin9iZ6EbG5DkbOyjPXAj5SMaUzS8/6v56SdCgaEAXzgAaSUw+42IBQRQdVYqjKjSoG0vmfDANJpxg5Bk2ix7lYD0YODlj4BJxxA+LQQLL10JUKOqhyQ1Vc7NKLvaMffn9gZHL79NZ45DR7jL2FnpKRozIDEIUGEr18GAEiNKzHNqTccBUXuwzItOkv5L4Pcnfx3njkjKI+O8ypB24qRo6KFyDO6nkzkN6cvGYqoNh0qMoNVVlxVgJK/KpQOQTfts2TZuSUPrdwQqeeHr/Zs/HS6ZkjR6UeIAr+J3He9JvxS6gqN6hCw1VQ7Eo6KE7yexUcqjByDBrx3EKtp9nsmaVn9bkF/5Gj0gQQB4c2fJux9lbogQy6rG5v9eDbtvT61uip9ZTPa2Y6DUaOSitAHAwk7LzSDRUy6LK6/dRjXjRo/xa4OJ8VLwCF19Nm5KiEAUThgSQNzQTUNz3FyPln86M5RCfl7Nk8cjG7l3exwwNJWbHbKz00csAl8c9zoRg5t3/5hyAjRyUKIAoG0sJBM5AUGtmwevAFwilMwBeTCxI5crhlegSgFnoKOkYPRk7Ur0NEQJxL75l7dBQdNKAefI3opZn5dwxQ8W47vDeSPitwSfmTyETn+r84foo0RlIAouAbiUMbD6SAevCez+3SdFB6jWb8p04M4YPyj7I30TOhU1fPxiuXU47edIA4ozNGTBo9VHwjU35Nkbp6JnSaz55kI0elA0AUfIkxkLActImPHioOJSnDrykWWw/oJB45Kp0Bah+nHlihS+rvJpdosq8yPlACPQ1eTSxG5hWQ/+whPWjLaecfnAB66hGAfPVce/bLbkeOylwCKps9qkyHihPpNKEzr+B61g6s5DByVOYPkK0HVmxASg/9ipPbp4t3EjUSUHs9GDmx78tpkzkD1Gz2oARoaX/xfqLm5lv32uvJduSozBMg5+yxa7vhpjmfx4eAlTI9EzqlekZ7lkEw25GjMjeAGuixAaFpVmkcxZrpIUCeL7GbQ+YDkPPIhSo9aLUeNM0qjflhXi+svh7ae67u/nReDM0BIE89kk6ZHmqaVfru4vg15yZ6BKAZeuica14M5Q6o2dasxKimWaWRwpA9eyZ0yvRQ58JQ1oBi6EEvPJDuXmkyVGv2TGoeqcjfUL6Amu09FYDghpvsXmlkYqi2HvTK+IXiczaUKSDP2YP60KFKQMnulabA0Oip9XI9BpBTDzVnQzkCKtNDl046tfRQ06zSnMJQndljOnlu4coTH+RpKDtAnkeuWnpQpQdNtkpzjKE9yzX0TAGZ5zXnaSgvQLGPXLJ/fOBO+nt7hSFbTwFIzR7Sg47Gv6ciN0MZAWo2e1CC8vkuU3bDVW5kN08WHzplJoa8jlxSDzU3Q7kA8tGj3FBJCejgPeDcSrqhy4omXqU5MIS9uFTPFJDWQz9OmpWhLAA108NWSA+CQxJY0F9KKBXt6lWIhaF6etCrjx3Lx1D3gJx6JB1utR4KVmP6ewXFLj3rNPFzpWUgYGzI68gl9VCvP3k8B0MdA/LRI91QiQiq9CA4OVdQnCU99MTT4pZdhAzVmj3Tjl87rHNDXQIKO3s42GwUF7sMCG18h5BZh3+4tf4fG8WfG6UwVGf2kB5q54Y6A+TUg1bQ8dGDYJVWXGQlHWrjVRp66EGu6/tCGaqnB115/I1uDXUDyHP2NNCD0CpdUQUIbXCHEMbP5CFS8yjp6guj4j80CgRgL/bSIwBBD7VDQx0A8tSDNtBDwSqt0FCVG26DVZpewJD0UIMYmqFn++zhXvurn3ZlKDUgpx6qosOAmI6nHsS5Sis0sg1W6cmTNLY9xh7MkLce0OGuffe19IaSAvKcPeSGW1cPRa7SiouztVbpr87etPXQo6RhDNXXc+2v/wdNbygdoLLZo/Sg7fUgOCrVAlRrlR7/YluHHmoQQzX0jOlQr3/7ZWNo+VrxvuInEaCUs4eCvRgHJk89qP9jq+P1uVQPPUq69uIXxVs3Cgxhp1F6mM42PQIQ9FBTGkoBKPHs4Sw/r5WUFXpQz1X61js3qvXQo6RhDFXPHqFHAjKG9ryaxlB0QJ6zB5V6GFBjPQjWGgXFWdKDLj60XtyyMvy8sAo91ICGHHpK6FBX/+Y/0xiKC8hHj3KDtp89HLwHxUWV9aB/enBz5io9Xp9nzJ5JzYNcm0cuFrdsFDLk0OMBCF3/3suxDUUE5NSDVgBiOkH0IDgqKTGySg+K6VLcsiRYkEv0GEBKD3rreNv/Bzbk1KPcoESHG9tQLEA+sweVeqgB9SDYixUarq0HxVGsYpU26/NEjwDknj3olUc/wre/uHGLkCFFx0fP6t/+OxrVUBRAnrMHtekE1EPB+bmig5bpQdcOrBS3tGLWZ8fsKdXTcgeSmRqqqQdd+7sX4xkKD8hTj6QTTw9ir9IVetCKo9io5m+1DfviLDCE83NfQEIP9cY//VcMQ4EB5aaHAiieeuiH2J2rtFmf6+i5urv4tbQBw4YUHbRSzwvUGIZCAmqmB42qB+FV2kfPUsnTM7A+++u5Mn695uKWQUOGSuk49EwBxTAUDJBTj6JDtelE1YPQKu2phx7kUqs0/jhG46dnDAjf6eLGoQMBbKiWnvW//wEa1lAYQLYehYYq6STTQ8Eq7a3HALr51rZfaYP12X/2oKvPLRS3jBNjaM+rDfQENxQGEI4RUg81Hz0I1ppqPXL8oCvPbPv6lv80oGP2oAle21Ab8tZjAP3Dv3312q+Kd9QuYQCNzlTRoXaohwIrnnpMH/6SEayex/Grhp6VJz6gG8bO1FBNPWheEwhZeTtrPQjGpFPPhM42PSjfITRen72OXOO+f+PHn9ENEwQO1r/38nY9Uzplev7/xIfF7VsnGCCEDJW5oXalB8Ei7K8HBRpapWf/JPIUkHlSc7z12Rky5D97AupBQgJCYKgMENPpRA+l+HXaEz0CkK3HrMxYpcfrs+/sQWOvz84IQ0n1IIEBIWxI6pGAutKDbJ40m5CnHvTas1+i/nrQ9o+eNgsM4dwqsR4kPCCEDOWmB8EhCWIEnYmeCR2px39rZj3J1mdn2FAyPUgUQAgM5aaHgtW4YvYIQLX1jL5xMuX67AwZSqYHiQUIgSGmk4keBOfkZXrazB76Ya7E67Mz0lBsPUhEQAgbykQPBat0DD2drM/OkKEEepC4gBC4WT6UkR5k45XLwfWgXa3PzsDQV6/96u7C/xV/jpbogDKMWaUndOrpKeg49HS7PneYPgJCzE+2h5s9o2/+uvP1uav0FFDdZ4dV60FzWJ87SU8BIeN7CMPoyWd9Tp/+AsIq7aWnoFOqB81qfU6c/gLCKg0u7fVcfewYPebaz/QXEIJVur2e3q7PlF4DwirdUg96d3Hbk1/7ll4DQrBKM52pnimgGXquP3m8eEd9Td8B3XrnRmM9aJ/XZ0rfAWH/hZhmetDe3v3D6TsgBFvwdjq+ejZeSvs767LMAMis0g30XP3Wz++cu1K8ix5nAGSyYl7ku56eYX2mDIBMNl65XEsPevuXfyhu3O8MgEzMKl1HDzqsz5QBUJHV5xb89QzrM2cAVAQbsacedFifOQOgabBK++gZ1meZAdA02Itn6ll5/I1hfZYZAG3L5pGL1XpuHgn/wnVznQGQDgyV6Rke+bIzAHIEp+g4z8KuQ3RwBaqG83ZHtrb+DJU2Dt+ML7eyAAAAAElFTkSuQmCC;" vertex="1" parent="10">
                    <mxGeometry x="513.31" y="40" width="50" height="50" as="geometry"/>
                </mxCell>
                <mxCell id="29" value="" style="shape=image;imageAspect=0;aspect=fixed;verticalLabelPosition=bottom;verticalAlign=top;image=data:image/png,iVBORw0KGgoAAAANSUhEUgAAAekAAABtCAIAAAAK+g66AAAAAXNSR0IArs4c6QAAAARnQU1BAACxjwv8YQUAAAAJcEhZcwAADsMAAA7DAcdvqGQAAEVvSURBVHhe7Z0HWBTX2seFZem9g1iwK4klBtGbq0bRWGLBrkBQY66KJTdB09TE6Ge7iXpvYgHTbIgRo2LElogFkwgaFY2FRAXLKk2QzrLLLt9/9hw3y5bZ2WXBVef3zKNzZoeZOTPn/M973tMsamtrm5iU4jM/Pfr1iKy8WODoauMfKHRxs2/XxaHti/RnHh4eHp56Y2LthnDnJq63sLK2EFg1kctra+VN5DILoY3HoEke/UbSk+qNWJRlaWNr7eVPwzw8PDzPGabUbknBg6wVMy1t7GlYiVwul4r9py5w7tyTHqkHBQfji387jB3HLr09+o3gFZyHh+c5xJL+X29qyopzdm2ExU3Dqlha4vij1GQaNBaUDXfWLyo8llgrlWIrOXNI9O0KubiS/szDw8Pz3GAy7S44/L04+yrjKtEGjktysitu/EHDRvHw5z1Vty4zdr2lJTbsSAvuF6bspT/z8PDwPDeYTLsrrp21EAhpQBswkEsv/koDhgO7vuS3A2oOGQuhDczw0stpNMzDw8PzfGAy7RY4utI9HUDZoe+QYBo2kJKzJyyEtjTAw8PD83xjMu127PhSrUxKA1qxtKwpeWic11ths5/W6kwX2DtZu3vTAA8PD8/zgcm0W+jdrFYuowEdWAptSRcRQ4G1XlsjsbDQeFq5XODkZmnD2+M8PDzPFybTblu/ZlYunhBTGtaKpSUs6OIzP9EgZ6TFhUx/Ekv1p62tlQscXS1tNXol8jz9iMXiIhXKy8vpDzw83FBLQoD+8ExgMu229vQVevozg3HYsRSUnE81tGOfXCrR9SdCdx8rJz2udp6nCOS39PT0nTsTZsyY7qHCV19tomfw8OgjM/P6/v1J77//XqtWLWkC8vAYP34s/fmZwGTaDePXJWRgbY2EhnVgIbASZ1+tyLpOw9yorZHWympoQBW5TOjiRvcNoeLGHzD/i8+dYjbD6wE8DUFGRsbSpUumTJkcHj4xPDxi27btdnbWLi5O2PCrvT1fu+LRg0gkiouLnThxQnh4eFjYqHXr1ksk1cok1K5de3Las4GJx8TfjVtSdSPDQmhDw9qAClv7NA+cv5aGOUCG2muO2KyVVvuMjXbt9RoNc6PgYHzhsUQaYC4idnopNODND2j4mQDWa25uTl5ePv69dOlSbm7u+fPnMzJ+l0i0fG5fX+/mzVsEBgZ6e3u3bNmydevWvr5+NjY2rq4unp5ejo6O9LwG4PbtbDzkjh3xyGb0UJMmkGxr6zpJqKSkLClp38iRYTTMw/OYvLy827dv//rrLxs2rM/Kuk0Oak1CCxZ8tHz5Chp++jGxdotFWaJvlskryzV906rIqytbzvufbUArGtZH4Yn9BT9+q1W7/actcurUnYY5kJMYV5p+VL10kcv9pnxg0HXMk/Ly8gsXLvz++7mbN2+mpaVdvJhBf2jSRCBoguSslqABDBPFvxJZ3ZZmmCrt23cAXbp0gZr37NnLx8eH/lZvYB+dOnXy2rVrhw8fJg+pmdlUQcY7cODAsGHDaJjnuQdJPSXl2NmzZ5Hgjxw5iiN6k9CaNatjYubR8NNPg8wjmLf3K10DLAnQXIegntxNXVjKRcf3aJrzuE7rTzdz9HfLxZW5e78tPfezljJAViP08A2YtuApnR0FUnj+/O9xcXEkEROsrS3s7Iw3maHpMplU1U7v0KH9wIEDIyIiYZsbp+N4zsTEXeDs2XPkCMeHRMZDURQSEkLDPM8rsLLT0s6oJXXiEmEHSSg+fjtSLw0//Zheu0H26hhJ3l02+ZbLLe0dA95axNH0fpCwruz8ca3a3X7NPhrQh3aL+zG4lFP3/v7hc2n4KSE1NfXkyROxsRtzc/MRZDc96oOqlHfr1nX69Omvvvpqhw4dya9cKCoqiogI52IiaYKMd/36NYNux/NMMmtWdGxsHHaMSELPmNvNZG2VqniPnKqn0dLSUlb2qOzSbzTICuzlmtKiJpYCGn4M4zf3C6QBfcByLzlziMURj59gkotFWTRs3ojFYqj2xIkTBg8euHjxpyUlxaRBpoGEG+DKMJDJXS5fzoiOnvX660ORkTIzr+Nh6En6cHFxUfxrzHO6ubnTPZ7nmIqKCvzLJyHQINrt0PZFl15DYcnSsDYsBMLi3w5zHCIvKy+he6rIZbbN29F9VojLRdNVoom1py/dM2PS09OnTJnct2/fXbuYFleD0jHMZ2xVVeVkI0H6G2ccHRkFz8l5AAuoY8dOo0aF4ZHob7qxt7fv0aMHdmABkSMGQXSf5zmnV69eSHtIQkakW2dnZ7r3TNAg2g3c/vGawMmNbagOTO/KspKzJ2iQFVl5seagylq5zC5QfyW6+MxPWn3lapDeL2Y+zKe8vHzhwgVhYSOg2kjB7KoNaUYSV9uqqiQuLq5BQV3I5ufnjyNq59C/1wduTZ7hyJGjgwYNhA2el5dHf9OGra3trFmzL168OGHCeHIjg7If/pzu8TzHTJky9cqVa3PnziHpFomc/vD8ocffLRZlie/dbGJlY2ljI7BzsPFtxn0gjK7OIX8jl1sIhYEfbmC/JmzzrOUzaUAFeXVlqwVx7K2LXBpOCbia14hpJlzcx7SIxeI9e354880oiaRWr6eP6G+3bl179uzZuXPnTp2CvL29WrYM1CV/uHhmZub169euXLmSnp6WksIUqBBl8isXFLY84yWDNHft2pUcZAF32759+969ezMz/+TiuESMGqJhhufppaioaMuWzaTdm2MS4pg4nxbYtFtS8ED07QpJ3l0abtLEpmkbz6ERHPvSycWVWavmyCpKWaQT1q7n4AiP0FE0rA1o942Pxgsc6/qqFK2dzWcvY9Huiht/PNiySi6p5qLdtdLqFu+u4d5tsTFBMl2zZvWKFSvZ06hSQKOjZw4d+nqbNq2NaNwTiURZWVlff/1VfPwOBLm3COHuODM+PoF7Tz4oeGJi4tq1a8jf0qPa4LWbRyu3b2f/+uuvsGkEAqHeJPSMabdOnwkUE8ItLcyF4azcoOMPNq8sTNnHZVC7pa299+jpNKADCwvLR6cPoJCgYW3UlGiZhaC2Vm7bvD2LwY5rGiDcshq7tl3N09mN1DlgQCiEm91DgqTZokUgJL6srGzjxlgIqHG9MgICAvr06bN9e3xhYeGCBR/hmrgy/Y0VPJuhFVg84SefLF616j+kyOHhMRTUJiMiItPTLzyHSUi7djNdoXdvkhbcVxM+BLEVJG9+kLCOSzOjc+eeDh2D2RotFRPDlpw9ToPakJY+0jJzt1xm49NUl3saz5+zayNH4WZMeGsb72FvmKGzOz09fciQIRcvZrB4MGC0Ql7nzp2zc+f3MTHzTDUM0t3dffnyFfv27YuKegPXx13oD7qRSGplWqcu4OHhMTU6tFsqkVWWaXbLI8AAr7iadm/TUi5rmHm+No7u6QBXKzq+h8WQl5UU0r26CHVP242ihWUBNjXkUrFX2HQz9JYkJyeHhY3IzPyTRbihqjKZND5++5dfrmuI+iBM402bvoqN3Qi7hot88/DwNA7atdvKyVXo7gPbloY1sBDaSPLu3tu4sPjcKXpIB9BE9/5j5NV6fCwsy05Ki/ItNEoR2MgCFw8aqEvhif1lF1L0diwh1MpqPAaMdw3uS8NmQ2pq6vDhw4uKCtiFu3fvf166dLVBR4vZ2trOnBmdlLSPi3xXVho2QyQPD49x6PR3652fD1YtTOa8xHU5icwwJxZcevS39mkOlaRhDSwEwrI/0nR5vaUlj+ieEqaDio2Nlx8NqoCqQNGxRPWGTR3USqvtWr/oETqahs2GzMzrM2ZMFwiasIwXh3C3atVy9+4fGme04ciRYbDueeubh8dM0K3d7t66fCaqQMFLzhy6+embLCMSrb383UNZPSeWlrDiC0/8SIN1qX6QrfYktbVy2N2aPUyYjjFxn8i5iQvKEqFX0+YzF5ubm1skEnXs2Ckz809HRzaLe/DgQefOnTfh/FB6gXWfkLCDvVFIzr74Bg8Pj4nQqd2OL/QQeviyGMtKYH3LKkpF3yxjmQjb+cVg9qvhIqXpR7W2f2pd7czauxndewxpn4TKc2+f9BkzgwbNhqKiovnzmanO2F0lsLi//vobd/fGHuM7aVL43Llz8AA0rEFZmTFjJnl4eAxFp3ZbObn6R8YIHJy5yDfkEvKd90NswcF4ra2OsG09h0bqXZkh/8B2uvcYXE3zgriOXQv10fC5e7/l3j5ZK5N6hU13aPsiDZsHYrF4zZrVZMwkPaQBcVkkJHwfEBBAjjQyCxcuIgMjabguvL+bh6dx0KndwDagVcBbixw6BsvK9a/zBtG0ENoUHku8980Krf4T58497dt3Z+kvaCEQVv51Ue1vYYkzf6IxG7ht8zZ0T0Fhyr7Scz9zbJ+UV1c6hwwyw/bJLVs2k37cNKyNqioJ9P0Jzobq4+Pz4YcfYUer45tfVZKHp3Fg024A+fYPn+s9Khr7HP0nMH4fxK8tvZxGD6ng1mcYm3NZMbngo9/qOF6kxdo7CNr4/u0zqbjxR+HRnbg1DbOCWNi17uw1ZCINmw2Zmdc///wzOztrGtYGrN3evf85ffoTdvV07do1OnqmVsd3dXU192kFeXh4jEaPdgOorUfoqOZzVti26MA2yuYxMH6lhbkPNq/ISYxT8187deruENSTzfQW2pSmH1U1vWVVFbVSKQ0ogPgyk0YJqcZJCh7k7dmkf41jBfhboYev34RZ3GdlaRygdxs3bszKus0+rhe8//4HDboIGUcWLFjo6+utaXrz/m4ensZBv3YTYIA3nTzfOWSQvLpSrwFuoeg+CBW+v3W1mg/Ec+AYeTUzAy8LD3/aTfeaNJFXlGrqsrV3M6X9nn9gu+b4T13Iq0o9h0aa4eI4ly5dWrduPbu3hBjdZrLuV0BAwHvvva9petfU6K+c8fDw1B+u2g1gq/qNn+k/dQHXBkyhjfhOZvaqmar9T6CbnkOi2E3viuvnlCM2ZeKqJnWHCKk2VBo6DMd7VLRz5540bE6Eh3Py4SxbtpzumQGjR4/u0KG9mukNu5uXbx6eRsAA7SZA+wLeWmTX+kVmqKS+zrwwhwWO7nk/xKrOf+LSo7/Qqymb+stlJedOPt5Xv4WFpUCoGJUDi/7Rqf0Ce07eD5QWeGa3VwbRsDmxf39SVtZtvUb34MGD2rdvT8NmQMuWgf369VMzvaV1HVw8PDwNhMHaDWwDWjWfudhjwHgLoZCjAV52/vjdDYuINQ3T2yVkoJo1rQrpcEKGWcrF6g4WgZObtbs3SoKc79fLKko1u6BoAQWApcA/4t/mNgwHFBUV7dy5kwZYGThwYGOOxOHC5MlT6N5jSkpKJBI9PUF5eHjqjzHaTfB6PbJZ9P/Ztuigd64SAPmWFuaKvlpScDAeQY9+I9lW1VFMLijOYeYNVx8Qr/gTcc69+1tXS3KyObq5cUGf8XPNrX2ScOXKFfYO3UqGDh1K98yGkJCQDh3ao05ANhxBUUR+4uHhaVDqu0487N9HqclFJ5Owz0VJaxXLsfuOnlaRdf3+10t0dewjp/mHzxV995+K6+c0rwx7n6Nw41Lu/cegpKFhM2PixAl6tVuiWJqguLiUhs2J5OTkn35iln4neHp6GjoPbVxcbHT0LL0uo4Zee6G8vPzmzZsikaisrFR1ZL+lpWWrVq2DgoKeYPcePNvVq1ezsm6RB2vWrHmfPn3ITw0BWX/j3j3GeEL0+/cPbbQKH/kKpQrIh8Brd3Nzt7Gxadu2ra6BxBkZGd26ddObhBpt7QWxWHz7dnZ+foEyFniNTZsGvPDCCyYcC11f7SaIRVl5Sd8xwxo5NBvCTrdp2sa2ebvS9KMs50Od2/7fNtGWz6tu/cHVvtYAF0HNoMWcZTRsZsBK9fDw0Gt0I9ktWPDR8uUraPjZ4olotzJ3HT165MKFC0eO/F38sNCjRzCqGqBNm7YtW7Y0raLhkR4+fFheXiYWVyPPX7t29fLly6iWnT79Cz3jMVFRb2zduo0GjAVpr7S0pLiYWcX7zp3bly5dunbt2rlzZ7OybpMTlKSlpSHKNGBqMjOv4yv88MPuX3755eLFDHpUB61atZw8ecqrr/Zr37696st/4tqNtIQ3efx4SlJSkub3UiM0tN/UqW92796dZRlCLphGu4FcXPnozM/5ezZY2jnrlVrGSy6XsQs9sZfLr1+Q5os4ObU1UayHyTh2zHIlM8BFtgCS3alTpxrU1HqCNL52o65w6NDBEydOZGb+SY5wWdoNtR+JRCJ73EwzePCggQMHRkREGq3gUM8bN27k5ubcunUL9mZubu5ff/15//4D5VMBgYBZlZ8GFBhdkENf7t69B2s6Ly+vsLDw7t27d+7cuXHjr9zcfHqGxntAlP38/Pfs2dcQkkdqbAcPJpPSwtragmXWTAKeh7SNk5ePCgF5sCeo3YjFmTO/HTt27OzZc+QI+2Moo+Dr6z1u3PjQ0NCRI8PIT4ZiMu0mwADPT95edSODiwGuF+6OEa3gzz2HvlH/5YOZOVWkEvxr5eRqwtZO2FmjRoXB4tP7sV1cXM+cSUMpTQ89WzSadkMf4+O3x8S8QzIP96U4tYJHwr/Q1g8++Ojtt/9tkIKTKNNAXfQ+Fe67Zs3qmBhmwjIuoISYNSt6165EGlYBD4+bsdyOaPfBg4dMOM8wngd1nejomeQFGvcVyN+CuXPnxMTEwOZtZO1GWkJ1bcaM6aSg5VLwqKEUcVQmvvhi3YABAwy1wY1vq9QKMwXKlPc8h0ZBNxnjun7UU7iFHr4uLxszaQlkGoVQ6eW0whP7cxLjRFs+v7thUfaq2fe+WaF3rQnuZGZmws5C2qVhHeADBwUF2dmZXQ+ZpwvYR+PGjSWKiUyOTZdkIFNhowHdPL6I9YoVK4cMGZyamkp/4EB+PmPq4tOTi6huXITM3t6wxPDwYQH+VbsRNlj0em+HE1jmIjYIGCv79yfhXYWHRygsEuYZjBBuQP4WL3DduvWhof1379ZSMjUcMPNR9vTt2/fGDWZNK8WTGNwWgoiTv71z5/bw4cNjYt5FxYj+xg0TazcgY+hb/PszOoZeV2eSBqa2RuI5NJJL3xLGrFaIdfGZn6DUd9Yvuv2/90XfLMtN+N/D5C2l6Uerbv1RU5SPmoT4TmZe4rrs1TE4mf5xPcA34zIIHrRr197BwYEGeAwEkrF27ZoxY0aQKo7WFw4pgV2Grby8DCdgq6oqJ0fYdZzkwIsXMwYOfHXHDqYPFXe4fHqtuLi40L0GRiaT2sFqMLCo0Ar0DrXMsLBRZ8+e0/UVCHjhypev3LR+BfLyc3Ie6J3BzVTA3EZaGjJkUHz8DtzRJKUaLoJLxcbGjR49GhYGPcoB02s3AQZ4iznL3PuP4dgH3LSgzLBv351lCKWk4EHZtfNKsb7xcVT2qpm5ieuZ2VTuZEKp5ZXMfHjQa2aD+a9wuGMHW/X9m2WXflNcxnggKEePcmofA23atDGHOUyeUt5//7158+YLBEJd2RvS0KJF4IIFH8XHb9+zZ9+PPyZj27PnRwRRJScnkDN1gSvj+pGRb8TFxdJDDYmTkzPda3iEQmH9tRuS1K1bN1J26voKyuLTz88/JOSVCRPGw7bFhp3Bg5khdeRXcrIqRMFpoCGBXYyqG9JSSUkx+x1J8YONveBXBRe8fDkDBvjOnQn0kD5M7O/WBCYqbNiakoeWQlsjmxwNx0Ig8J/yodr03HgScc69quzr0qK8muKCmuKH8upKZiVMjss1PEbZf5GGjaKoqGjAgNCrVy/prW0hvcbGbpw5k5nK8ZmkQf3dsIUhqSx6UVUlgWq//fa/YcxqOhxRxCLHbty4EXVzBPXmWPx74kSq3l4ZsN0gATSggP3KquBVGNRwrdXfzfF2qIV07x6cnn6Who1i6dIly5cvQdmmy9ZWKjI+xIgRI5s2bYoCA1hbM+5EiUQilUqrqiqvXLmK0pRExAgvOe5SH3836g1vvjkVFSxdr04ZC+Dr640SqKqq6s6dbOLUJuh97UhCiG9S0gEu0xY1uHYTClP2FR3/QS6pro8LmyMw85269fUe/kZNSZG09JE4+3r59QswlmulYguhLRVrC0vjCxK5vPnbq+rZd0UkEjVr1oxLFkKaSEjYMWlSOA0/czScdqempvbv3xe5XGs+J1K7c+cuLg396enpsAFZsi4BYieTNUGm5dLulJl5/fz587du3Tpz5gxsUo56ZLQG5eXlnTt37sKF8+R2HNNe797/TE09TcMGgpIPlR4Ue7qiRspOmNWzZ8/hOMkaitJt27ah8MOzcYmCEqPfG0BC6tuXaTnTekdcGf/iRYWFhbVr1/7VV19VqyVD95XdB/U+M3knBw7ol+9G0m5QceOP/P2boaEcJ9quD5a29kJPf0lOtqyyDGJtIRCayuSH0W3XtmvAlPfq2eEEtUjUj7gkPnzLxMQ9ZjJ9YEPQcNo9ZMhgFpHCNVEf//77XTSsD+TAGTOmE3ctPaQNXNagfiAAqoq8HRPzblFRAZd62PXr1+rT8QO3Q3UEhr/e5Id7hYb2O3bsOA0byMKFC1g80QqXQi3elRH9LCGm7703X++3UAVxMU678d3HjBklEt3R/DREZ3v0CP7889WtWrViX8oK5lpi4i68dr2FNN6Mu7tXRsZl9tdCFY2015H9BsKh7Yst5izzGjbVQiBoaA844lJ9969amQzlBNNbsZ7CLZdDshkHCyp+Xk2du79a/56CMH/oHitIHC4url5eXjTMwxlkb73W5bvvxtA9DiDbb926lQZ0Y21tER8fb1CfAWRR1KtOnDgJLaOHGhLcDkVLbOxGyBk9pBvh44nyDQWmMYtw49aQwlOnTuFJDBVu0KdPn8OHj8Bg5xKF+gDBffXVPllZt7UKt0wmXbDgo1OnUvE8etcgxAmILKKscKewLS+Fe+Xm5i9Z8ikqLvSQNhhRK7t2/kHCuty93xYcjC8+8xOznTtVejkNx2EsYxOLsiQFD9QWUjAC0gXFNyKG4ywo9aL+ei2rwUPKyous3L2Zcfzj5/hP+bD57GUmWSzt2rVrdI+nYfjhh79ngdcEGQ8iGxQURMPcgLWLvMquF8h4Fy9mXLp0iYY5g4tHRkawXxyPLRDQ/XqCqr3mFL6aGNenBQUnMTBpuC5QrlatWsbHJ9RnuJm7u3tsbCyZToceMjXl5eXz58/D9TVLILw3WNyJiXuXL19hUL9sRHnz5q16C2ncMTY27tixYzSsDYv85O2PTicznfkU1MplyuY7mJnMGYpRNsTStLCyxo6FldDS2lbg6GLl4Ghp7ySwtbN0cGYOCq2Frh44gSxqw26copx4dOrHRmu91AOUulbeRDG1oYVAaCHEZmPt28K5Sy/7Ni+YdkgOoU+f3hydX7C7Dx8+anQbi/nTQD4T9oliIB9du76cknLc0A48MKhDQ/vn5DxgqfbiaQ3yxijZuTMhPDyC5VUgPUgkkitX6uUzIcCm0zs0zLiI4BUNGTIkM5Pp+0wP1QWXTUraZ/R4QlW4+x5xU0N9JqRJWfPiRLjj47dHRBg5S9LSpUsWL/6U/bHxwN26db1w4SINa2BxY/FUWUWpniZERR9t9fVrFEoHrSchQq2UGvmWNg4CJzehp7/Q3cfGJ0Dg7C6A0AutBXYOlja2pNt13o/b2Kc0aVgUek2Wrrdy8VQ+qtDLz9aveUOvrfPSS924dDLhtZuAdGyQdsNiCgsbkZJygkU+QkP7JScfMmJCCY4Zj2OLpSrp6ek9e/ZkubIJtRvonQcNsTBCuwcM6M/+5lF3MeHkPG+/PVfvmlMA9zVIuzMU4+y1+qZxKUObNNQoKiqKiAjX69PDjVj6KVjat+tG9IsNWMeWlgpLXGVT9H22tLFX3QSO7mTDT/LKcvGdzLLzxx8e2pabsObBt8sebFkl+mbZ/a2r732zAlvFtbONKtwKNwjxXMvKi2BcO3QM9hoxrdms5c1nL2s6eb5/+FyP0FHOnXs2tHDD5EHGFgiENMxjaqysrNgdtahSSiRS45b4eeml7lwcF5mZmXTveWL//iR24YYtiaKahk3B2LHj6J5JWbVqJf7VFG7i8Jk1azYNG4W7u3tkJCebff/+/XRPA0vf0dPsWndukMZDIvePJR7/1spkEHRJ3l1oOraGbh0lELc1/rVy97Zr/aJ7/zH+Uxe0XZnYdvmOgDc/8Og30qHtixDrxpzdu7LSsIhXV3Pt4c9DgMHL7qiFNXXjxl80YCCw3Vq0aAkTmIZ1cPx4Ct17bhCJRGvWrKEBHSxevFhvs55BEKe53s9hECiBdNVIJJLazZu3GlFdU2PMmLE9egTra7S0PnLkcKqO6RYsLW3t/SbMaiKXMQInrWYs07ob4zBRbvVHxX6nR0wNeWxiXCMIvYZx7T/1o4BpCwKmvOf1eiQs68ZUak2kUin3pAYLndduI2CfKBn2lOr8eQYB6fH09JLoWx7o9m31yVSfeU6dOsnSigOdgtEdGjqAhk1HZGRElcoQmHqCarGuMc+oNwwePOill16i4XoA9R8wYAB7oyVSKe547dpVGq4L01QIq7P1p5thjcImdegYjM22RQds1j7NhR6+MFexWdo7MputPWnAVPU/MIqvuamov9rG/HmDgSfEYxNnSOCHce1Wfc8sz9ZvpFOn7oimyZscGxp8PKh8aak5rrpg5kycOInu6UYkukf3DCQwMFA5GawuSkqYqbGfHyB58+fP09W3BECnwsLCGmJ2h1deeYXumYLMzMzY2DhdJVBUVJSpojBu3Hi6x0pCQkJ5uRbznHbzgB0KaxQ2acCbH2BrMWcZtsD5a1u+81nz2csYi/WtRdj8It71jYjxDX/He9xsn/FzfcZGQyI9h0ZB9J1DBmFz6t6fbt36kmIAGyxfsqE8QGEA9SdGscl1HFd2Ce7vOTTCd9wMt14DzXbaboOQyaR0j8cQUJUm/X8V7XvMVl7+99xG2HDOn3/+PVO2QXh7e9M93TxvtaWjR4+gKqPpIFZl/HhOamUoAQHN6J4p+O67b+leXZCEOnRo37FjJxquN1xSCIoQVGW0GhkNMq6SxZEtlzJVG2YoULU45/v1kry7pnWeEMuaqR8oujMK7J1oX0ZbB4G99qn4LB2cBXYO2Kxc3C2FzF/RHxoMlKLBwS/fuZPNntAJUBl+TDxeghEJNTPz+vTp00kt3sPDw9PTC/Zyp06dWrduHRT0gqenp6urq3E2lN6uJnhglBy7d/9g0PWf6n4mejtlBgV1SU093RB2N+kTwhIRgLhw7GdiYWGhq3tJfUaZKiHD+q9du3bp0qWcHGZFdRZwU/yrdUajxhsTr0bFjT/y9myqKcpnOrGYFrUejdr6Mmqi7N1oIbRlFN/JDerP6L6zu4WV0NrLz+XlvqbykqN22a1bV+7azc9FhZdgXEItUqxNY/L1yfQ+M2z8f/zjnwkJOw1ql3t6tZsMHGfp9o5LmbZroCom1G4ydYnWS+EKc+fO+fLLdTRsCNDru3fvnTx5AnlZ2dCitYQg4EMTDz5xrw8aNFhzHNMTGBoDo7swZV/Ojv9KC3NNL9xArUejtr6MmpuydyP2a2UyFCqoE1Td+qPs4qnS9KMFP357f+tqlDf0FvXD1tbWzs6OuzOETNXPYwTu7u4hISGmFW4uCAQWqBHX1Dwv/q6rV6/onYy+R48edM+M+f13unSZVmAE0D1uoIa9Y0f8woULoqKiUCSgrkbmjyWb2uuCXqN4IBt+WrNmdVpa2pYtW1HgaR2A2qjaDdUuPvPTjY+jHh7aJq8sN3lXEwvFTCmkpZQeMpq66g9BF9/JvLdx4YOEdSbp2oiaI/fJK3Jzc7U2VvDwmANInD/99BMNaAOqBKlyczPZEukNB/tkBq1bt6Z7ukFVD1Y2JLtPn95OTk6RkW+sWLHyt98Yx52mXgOlZHfo0Ckq6g0Y5vfu3SsuLo2JmcdudjSedpdeTrv3zYq8H2ItLCyhhia3uCHZ7v3H+k/9yL3/GGuf5vLqSmWvR5P0boSIQ8FLz/1cmLKXHqoHBq2Dk52dXVFRQQM8TxqRSHT58mUa4GHUR/LLL6dZepgAPz9/Z+fGWzLCOPBl798X0YA2WEZmiMXi1NTUuLjYWbOiAwNbQbJJQwvZ1FbYgV4rW86rqiRz585JStqXkJCwdeu2mTOjOfrZGkO7xaKsu3FLchP+B9NVl2qbwlIWlF48bdestdfrkS3mLGu38nv/qQucQwZBxy3tmeYRk+g45LvoZBLKIRo2Fu5dRJElzpz5raqqMcYx8egCpmVm5vW1a9cMGNC/b9/eW7Z8hwxJf3vuKS0tYXeYQNy9vLxcXRtpqTajefjwIewklkJIXlc9oNdIGJBs6HXfvn1GjBgWHT1r165EXIFINj1PBaLXLi6u3bsHQ7JPnTpVVlb25ZfrRo4MM7QNo2G1W1LwoOBg/O0171TdyEBQq5MEkmohEDgHD6infOPikpzse5uWoqiwtLXH5ty5p9/4mYHz1zafvcw3/B3PoVEOHYOh43/b40aBekPO1v/QgLF06sS1pxGyBD723btG9kTmqQ+o/CYnJ0OyQ0P7d+zYad68+SkpJ9gnonoO+fXXX+meDmQypqLp7Gzu2l1aWspxCdmMjAwkjJiYdwMC/Pv27RsbG3f+/DniGsKmdgVVR/aECePXrFm9a9fulJTjkOw+ffoY3fGmAbW7+MxPdzcsKjq+B7YqY25rAPWEhtoGBrV453NrL78m+rqC6AV3keTdFX2zDGUGPaTA2ssfOu4ROso/fG7LeWubzVpO/CrMAzz2jxst5cbRvXt3useNkydP0D2ehgd15x074idPjpowYcLw4cMh2ciZJFtq5kyeW7du0T1WrBVrmD3VpKenx8XFImFMmjQRCQOSrdRrR41F91W9Ir17/zM2dmN2dtbGjbExMfPqI9lKTK/dcnFl6eW0m5++mZu4nmmQ1DHbFBRT4ODsMza6xZxl1QU5+Xs26DrTIGB9yypKUWZo7RMCY9zKydWh7Yter0fCHm//+Q/+Uz8i9jikHCcwJjmriJNfnUOYxU/rg7e3D743PjwNs2JtbZGUlEQDPA0D9Bo5EyZ2x44dmjVrFhn5xrZt2zMyflfmTHoejwbPzGT07AOYkQzWrVsfHT0LCePOnWySMDQLcqWVTbwiCQk7cnNzU1NPz5wZ3bJlIPtUDQZhYu2GYj5IWJezfTUEFOa2Lte2rLzIIahnwFuLXHu9JhZl5SVuENjX6TrNGMKPpxQ3FCLfOTv+iyvTQ7px6tQd9njAmx80nTy/+ZwVXiOmQcdxHE9Yp6lTMQcADtq26ND0Xx/7jIgif240sEF69foHx0kYyHT+NMBjUiDZO3cmvP323ClTonr27AkTOyvrL5ItsalO0qta82WfQuh548EDPQNMCHpngDF/lAmDxSvyeDGdU7t27fryy3WTJoU3UBdVk2m3pOBBTmLcvY0LK66fg3pqdW0DqKHQw9cvYj7k0jagFf7qXuzHMM9VVR4qadf6RZjD9ZRvXJl7o6K1lz+ex6PfSDxYu1Xft12Z6Bs+D/Y1xNrK3ZtMGBv4YRxqCTDb6z/2EjWmkSNH0gA39u/nTW/TUFRURBoeX3qpG0zs8PAI2FNk5lI1vSaQPOnn5z948KA1a1aj5vvFFxtwhP783FNeXo6qIQ3oRip91nq7KyUbaYM4si9evFhdLSc9smFl0/MaBhNoNzPW5sT+uxsWlaYfZVzbulRbMbefU/f+AdMWwNzGkZqy4pxdG5nu0hrmue+Yf9WzEyEeQy6pzk34X/EZtp6nurBycnUN7us3fibE2j8yxn/Kh6SwoT+bgk6dguzsrDm6TUBKynM3p6hpIb24INkREeGk4fHy5QxllwBs9DwFqpYUsmV8/PY9e/bt25cUEzOvofPkU0dVVRXd04FA0KSiouKZ0W5l2kC9OTIyIiFhB9LGli1bkTYac42U+mp38blTt//3/sND21lc24CY2/5TF/iHz4WFSw4WHP5enH1V7a+g7z6jp+OcquzMJpZ1prhn3BeGwJQicnne3q9QtNBDRgHJhq1NA6ajffv2L7/cg6PbBHZNenr6bUNWsG1kYMzGxcVCGZUbHpj+9qTBs+F5Xntt4IQJ4yDZZL0SbJrtS2qWFCS7sLAQ2TIiIhLZsv6zNj+fCAQWsM3Ly829psKxB3qLFoFEssvKyr7++ptJk8KfSNowXrtLL6dlr47JTVgjLcxlVFKXmazwFDuHDGo+e5lz5570YJMmhSn7Ss4cUhNuSLxz8EBY5ZKCB9KiPHpUAdPnT18/QmZcpZqbRTE88mHyloKD8fSI2eDj49O7d28a0Acq8mfPnrtyRftMvubA0aNHoqNnQRmV282bN+hvTw6RSLR06RIPDw88z+nTvyhHJNOfH6OUbGTLBQs+Skral5Jy/Pvvd0Gy3d3decmuJwKBEG++pOSpn8oYKWT27Dm//vrb9u3xkGxHR8cnmDaM1G4ob278WkneXRYnCWCU1NIyYPpiv/EzVSdyqrjxR+HRnUxjpgrQZYGTm+fAMdiXV4tl5cUWFvTx8JPQ099nRBTp2EcOqoF7+U/50K5tV1ju9NBjUEIUHks0Q/keMcIwlzfMQLpnZojF4tOnT2OHKCMRx2bNmK47T5Dk5OTw8EmLF3+qdIxo9gogkk0qv6dOnfr552Mff/zJyJFhvGOEO3Z2dnRPB3jtWVm3zX9SXBsbG19fb71uTBP2FakPBmu3WJSVtWpOQfJmYtLSoxoQhXXvP6bNp9+pORxgU+ft2aS+cjGQy/wi3iUeFWnpI1nZo79teblM6O4D09t75FSW1TVLL/7afOZir2FTNeUb5QTkW/Tdf2rKiukhMyAkJCQ0tB+0g4ZZgfTs2pWYmXmdhs0JMl292oC0Vq2e2PzpKEvWrl0zfPhwMi5ZU7IBsbWjot5A5be2thaWVJ8+fQICAngr21A4Ts7DPtzcHHBxcfbzY1urFil8w4b1qMzR8BPFMO0uPLH/XuzH0sJcNZNZDUgn05kkillgTLNLRs6ujdKC+2q6jz9hVu15rPKyinK1WVuFLm74Fycwq2tq638C47rs9+Ow6D1CR0G+cY6ahY5nLv/j19zdm8xKvufOfZvucWPjxo10z5zYvTsR/6pJpGmXJTSIffv2zps3n9ja9FBdINywtaHamzZ99QzPjd44+PtzWpv7zJkzKFNpwCxxc3P38fFhaYJCCkd5f+rUSRpuFFBUaH1vXLUbxnL26piHyVtqpVJ2c9tCIPAYML7lO585ddIydLDgYHzVrcuabm7HF1/xCB1Nw7C78+9ZqDRUQsct7Wkm9JswiykPtE1LAls+f/9mSDPTZXvmUoGDs6Z8V1xNu7dpKaJDDz1pevfuM2HCeI6mN4r9gweTzacNkJCXl7dixUpVldRb62xQbt/OnjIlkr3XmkTCCDdUm7ey6w+XVYSQdFHAG7cwf6MB4Q4M1OMrQ0Q++eRjGmh4kJiDg7sHBraYPDlKbdFhTtpNRrdLcrIZzdXddQ+2s13rF/2nfKjV3AbF5049Op2sbrMrVNh33AzVP6m6d0utk4nQg/Zvt/byd/3HkFptk1+jUKm+f7Pg8PfYh4Ue8NYixj9e10hHFBAR0bcrzES+3d3dJ03Sv7IigfgNd+yINyv7ZdOmOLr3GJlM2q1b43WWUmPt2rWowmt201aCknLSpIhRo/62FXjqA5fJeZB0c3Pzr14138Z2Qps2beieDkge3LkzgYYbmI8//hjvraSkeNu27VOnTqZHFejXbgh33g+xsopSNWNZFaW53XzmYl3d6aCVBUlfqRnCACrsM/EdtSVpJLl3lA2VoFYqtnb/u2x36zNM6NVU81IABUPJmUNkQLxtQKtmMz6xa9tVU76lhbmQb63j5hufkSPDoHTcvd7r1q1nn2W4McnMvL5z5041Tzeks127djTQuKASAPtO7Xk0GTt2LG9xm4pu3bhOigmzg+6ZKy+/zAyr1su3337TCF5vvK74+B3KBptBgwaT4wQ92i0XVz769QhMYBY/Ccxth47BzaL/D+Y2PaQBrnN/62q5pFrtOtBf9/5jXIP70rACnFxT8lDVwLcQ2lra/J3TIPSeQyN1NVpaCm2Z1dQUTm2cieLEOWSQmtDjMRj5jvvETOQ7NpYxXTm6GgSCJuHhE8vNYzWGL7/8MjPzT5K2VOEyS31DcOzYz3pXvAVq2eBpAfHSuz5949O2bVv8qzf1Eo8fClcaNkvICjXscYGYpqQwq5fRcMOwf39SZOQbqlbIoEF1plHSp92KpYF1AXsWwu01bKp/+Fz2MYd5P27TXFYYeipwcFZ1cxMgu8rVIwmCx85uJY7tOutqtIToSwvuP0pNpsEmTfzGz3R/NUxWXkTDCpiHsRTk7Phv2bXz9NCTo0uXLnPnzuE4TsfR0Qm1trVr19DwkyM9PR2ljtb2wGbNTLl0N3c4zmnHG90mxNraevDgQXpTL/E2oHClYXMlKuoNvXFBml+xYmVy8t8iY1oyMjImT46ytrYgVggpS9q3b6/4kaLf7tZu3ipG3DgE9WyzdJtH6Cit3m0lhSn7ilP3qlvucrmltU3z2cs0/7by5hUY2jQA5HKBk5vaaQj6hL2J41obLS2ENg8Pb1MVZdQJ/CLmk0XR6CGFfMsry0UbPzJu3LwJgZR8+umSHj2CuXtOFi/+NC4uloafBKgzTpkyGZUArXTqFET3GhGysjANPLuY2yAX7pPzQIw++eRj8+znquTdd2PoHiuwiP/1r2lq7YcmYefOhG7dulVVlSvbbFCWREfPDAioYw/p0W5rL3+X4FB5VSkkj24KW5txUo+fG/DmB2p+ak0qbvzx8NA2gaN6b3ZcwX3AeNKbW42qe1l1OpnUyi2stLgvYem79R4ur2uhK7G0c354aIdqd0DXXq/5TJiLHVX5hpGOZ8vb+9UTl293d/fPP1+NHY6eE8h3dPSshkg6HPnss/9kZv6pa3LUJ7LAlVQqffjwIQ08u1y8eIHumQ0oqpEgObhNHGF6r1y5kobNkjZt2kRGRui1omAR5+bmL1q00IRFkVgshkEWHh6BgkGtsf2VV15Rm/Jbj3YDmNXeo6KFHr62LTo4dAx2DhnkNWxq6083qzmptcLM77pnk1qPEQD1x3U8+mkvq8V3/1LvZOLuYynUIt94Npumbepo8WNgU0tyskmfEyXOnXsGTF+MuKj9CU7O+yH2iQ+87NOnT3z8do6eEwArZsKEcU9EvteuXbNu3Xqt3hJkYF9fb1tbPR7nJwvqpHSvwTBi6iUbG04v7YcfdtO9epCenv7XX3/pbdTlSI8ePTjOaYw0s23bdtNWGa9fN+UE4pDIsWPH0gAriMvp07+8/vpQkzhPkCZHjQqDQYaPotpgAwO8Q4f2Q4YMpeHH6NduAIls+c5nLeYsg6HtN34mgnrNbUJe0neaw3Cgm9Y+zXVNgS0peFBbI1HtZNJELrNUrGFGg3XxmzjHEvHU4TkpTT+q5s5m+g5OW4BCCOUHPaQAJxceS8xJjGPmNXxyRERELlnyKefu3o4FBfl9+/ZtZPlGSp03b76ubC+TSZs3b/GkHMouLpwW1jp+3PhJGW/fzt6/X8/sZgKBsKqqytCunCjwWrVqyaWhrD4tfsS469mz5+XLGaoaUR/wubnPaYyUg0Rukm52iMuOHfEwVLWaEUYzcmQYRwcm7isS3Rk+fPjChQuMnioOlvvSpUu6detGZklT+ygSSe2///1vzYH4nLQb6JJOFrQOwyFubp8xdXpzq1JdkFNnNLwCMqhSK7YBrXR19wYWAmHBj5vV5Njay98/fK7HgPGMC0jFALdkloE/9iBhHQ0/Id5//4OoqDc4yrdiJjyLESOGITc2TqdvZLl//WuammmgCpIa0pmdncEJpv4IhUKOpuvPP/9cVFSn7ZojKLdGjx5N8hg9pIPi4kf5+QU0wA18zcDAQC7Wq2afeo5AX2bMmE6MO13+LuMgnSK4ePyQcoqKCqZNm1pP6xtfEHFR64xhKj7++BO6pw+YUEgMK1asRMKABBtUrMLWhuiPGjVKOesO/eEx0IHevf85fvwEGlaBq3YbSvGZn4pOJqkPw4F0S8Vewybr6gMOJHkiNalVHVSpFa/XI639ArV6Tkifk7wft9HgY1By4K+o/0SlswqqCOV//Arrm4afBDBhNmzYOHfuHO7WNzIMcuOUKZMbtM9peXk5ccaVlBSz22sQII72r2lBmcFlID5yCMQ3MXEXDXMDqvf223NhYcFc1SvceD+5ufmGzuDh6enJpY0XdzeipRppA38SGNhq27btuAL7FyQIBFzXxAGOjo7ffruZo8ePOHORaGfNijbCXwx93L8/KSDAj3tcgEG5Y8CAAdzzIMBjXL16Cd/F19d3yJDBqA2kp6cjaihglEYVchBSEVmnGJLt6uoMWxuiT1ZQ04wF8jWOL1u2XNPoBg2i3WJRVkHy1jp+DwVQSbvWncnCC7qQFOTQvcdYWAoEtnomKvMeObWJjqWKYfiXXTiptR83ihD/yBi1qQctrKwl+U94rhlkA3xRYn1zNGTwjXftSgwPn9RAI76Q4N56axoyG5es4ubmxt1nUlnJyUnFsVbBsW8ibBzEhftSRDgTVhVx8cNc5fJRwJEjRwyqDOGltWzZkgZYIc/PsZ8olA6qPWVKFPl82HCQS9JC3QrFD3dtHT58BPcJHkiijY2NCw8Px+NxrAbhNEVcJoeFjUKQxIXjzOCHDh2kexzAt0ANuEOH9tzlmxjg2GAZoDbQs2dPRA2FU0zMuyj1sSEHRUVFDRkyCBYAMjiRZmy6MhQKwtmz55Au55pY1NbqnwDMIGrKim+viWHGYWq4uWHkNp+9jMVXDov7zvpFUkhnXZ+Jb/g7qnN/a6XwxP6Hh7ar3ZSAW6MgabN0iy5HTWHKvsKfdzFOc9xXLrdy9w6YtkBrH5hGBsk0JuYdiUTCsXpL0hkqWSirX3rpJbWGaeNA1v3yyy/J6CGSVdjBM6xZszomZh4N6wNpWlezpxJcMy0tLSQkhIZ1A2OnXz8mrestYJBzkDfwqKiQarXWYSUVFxcnJx/4/PPPsrJuwwglXwEPgyydk6PfIMWZBw4cGDZsGA1zAG+7Y8dOXN4zwPV9fb3j4jZ16dLFzs5eKBRCbXG8oqKiqqqyuLjk+PGUDRvW4+HJ+crL4g9hVKI8/v33s+wvCmciOX3++Wrcgkt5DLsSpj2KFr3vX0lVVTmZhjAyMmLChIlt2rTGjaysEBshDkql0poa6d27906ePJGaeiol5YTij+rEZfDgQT//fFRvHsGZ+NxTpkzVasZqBckJEmxQdFQhaYwGFCAV4VpcrkbidfjwERrWwMTaDfHN3ftt2cVT6hqqkMWm0xayeEsAdD9r+UwaeIyFQOAbEaN1ZitViO5rjgAiwLL2GDCeZeRn6eW0/L1fycoe1cplji++EvDmB/SHJw2qV5GR4fiQHPMzwMn4FxYQivegoBeMW4cJxlpa2pmzZ88i8xt699jYjTNnRtMwK8jqQ4YMQZ1Rr4IsWfLpJ58spmFWOnbskJX1F6mV6wVXhhBPmjSpdevWLi6uzs7OpaWlZWWlJSUlly9fTkjYgRNUsy45f9Omr1auXKHX660wrFzXrv1vr169IEYwD0tKSrOybuXk5MCK1zVFeJ8+vcnUtTTMClEHa2uLkJBX/P39oUoQ7vz8/L/++pNINn5SexWIQmhov6SkH2EGoq6m90Y4H4ozffrMNm3a2Nvb+/n54aCbm3uPHj20qjkMDmLg0zBncCOyg2cOCGjRtClToBYUFGRm/kmOA7XL4k+QzmfNmt23b18ud8T5KIp69+6N+pmTE6pQjgKB1QsvBLFM106iY7R8Gwd5zm3btrE8mIm1u+BgfNHxPertkwpviefQKI9QpprDQsWNP+5+MU+tMziM5YC3FrGP2ySIRVl3/jtP8+5K/KLeYykDUHLk7t4kqyxr9tYCI9pmGw4I3OLFi7dt266ZD1kgOQF2Wdu27SDfr702KDg42MHBAQetrJjijWQ8ZaW+pqYG2f7PP/+EgXPmzJnbt2+TPGNQqiVSkpS0b+TIMHpIN6j/Dhky+OzZc3pzHS6LZ9iwYeOYMfrnIdmxIx41Vu7aobT7yOtVtZXU4k5y1JdfrsP75HgXcrVWrVriOtivrKzMzc3H8fj47RER2i2J1NRUjkqkBFdG5Ux1uLyur0aikJS0HyqPl8+l0RWovhNCt25d9+7dq1VZkKI+++w/ixd/alAUVMHtFP8yd0Q0dCU/xAWW6ZYtW5Foub8xlKBq8wroNQvWrl1DOlbpehLTgnghwaSkHGdfAMSU2l127bxo40fahuHUuL8axmLzKilM2VeQvLlOC6dcbmnv2Hz2Mo4eDHbPidDDt+U7n5mVLnMH5f8XX3wBPTVCTGmAWQ+hJcwZYqC5uTG9d8rKYAyWqFpqBENTqvJGsINWrVrFkuxg0aNguHnzxrJlyxAdjlmOXB81/bFjx3l7e+H6ukS8vLw8LGwEWfedHuIM7sKiFDBXv/nmWxI1FKgTJkzIyPidS2lKxIiA6+NSCxZ8tHz5CnqoLtC+999/T68fyQhw36ioN/773//h69fnLaG0a9Wq3eHDh3V9ZUTh//5v6Yq6MwObFsQFhVBCws6AgICdOxOM7iaI63Cp0hH5Nsh4Mg48Dwqk2NhYduEGJtNuScED0bcr6NqVKjDDcIIH+oczAxr1IvruPxXXz9W5gsL7zO4lV0UurhRt+bzqRoZW61tWXhT4YRwXE948geotX74MuRr7xlkBEBE1A02J0WYFUhvZgS6g9hoUFKTVzw6x+/rrr0Ui0f37ouzsbJQTRuQEci8Yfe3atfP29g4JCdFqicN0HTFiGIsQGwQpNiIjI1auXKXqGV+4cIFx8oRY9OgRvGfPXl29YogriXvBphcSBXygTZu+Iq8LaWncuLG//faLET0FcbUWLQJZtBsorW9lO4EJwQtULUeN9tIAXIqjO27//qRJkybgNTZQgUQqBNHRMz/77HMuLVUm62eSu+drLcNwFIsqcBRuIL77p1rvFDIgnqNwA8bBMuU9Rri1j9axFefco4GnEB8fH1TYoXtIbX5+/kh2yEX0N25Ay5CRkPg0N0NlDrfGA2BTmAkbc3Nzt27dBjHVleyuXLkKpdu2bTtsvZycB7ijESYMedSrVy/t2pWIMmzTpk2oNNDfVOjTp09sbByymaHvRxNEEK8aEdy+PV5Naj/++BPUY3ACDXODPNLbb7/t6elJjmgCSdq583tfX29DL64VXMTFxTUhYQc+kLKcq6qqrK6uFgjYVqjQBZcXixtBEA8cONC2rQFdNfRCUh3Sf3LyIWXJgVoj2TEUEguOC2mOHBl27VomGS5f/3SlBq7ZuXNXfKONG2M5djEwjXYXnztV+ed5NVMXwu0Q1JO7cCumD2TWJqbhxxjq4sD53iPf1DrPiYWlQFZqzIgMswJJFrni4MFD8fHbkSfx1bGhGkt/bkhwF3I7bLg1slBaWtqWLVtnzoxGuUJP0gGZ4cS4ckINiD4ugh1ra6YrglYmTQqH4EJl8Kj0kIGQaKJk2rNnn9amV8jTF18wI7m452RcEI+ELBoREalZXVCla9euu3btJn3UjFYKEoXevf95+PBRtaXdYBdLpVKBQOcLJBCtVNvwVJMnT3F21t+Ff9iwYfv27SMdpbHVR/IULb1lSDl4e0j/qm+Pi/ji1ppxwXF83169/kHO0QuyHmwCPABJV9jqEyOgfCRUifbu3WvQ8num8ZncjVtSdesPVaMbKmwbGNRizjIa5kDZtfM5W/6jpt21shqHjsFG9PrISYwrTT+qWZw4hwzyG6/eleWpJj09fevWLdDQixfpHB1E10wFSeIAld/u3YO7d+/euXPnYcOG66rv68KIJjh28GCoOO/YsZOl2MjIyHj77bmnT/+Cfe63JlFGro6KitKbnYizFTvs1yfXRBZdsmSJ0mDkAp7/4MHkrKzbBjm1yO2g2jNmzNDaKIo3M2nSRK09fJSNtwAVi8DAwKZNA1q3bt2lS5fu3V829LsTcLuvvtp09OgRRMRQL4oyLr1790ZdR7PMmzw5igzSoeHHQBkhsmQfb69Fi8CWePWBgW3atHn55eAXXniBe2dBNcrLy/fvT4qPjz9z5jc8ntHeP5SC/fr1e//99w1KEgTTaHf26hjVznlEuJtOns/d1wEKU/Y9PLTNVGoLK/7uhkU1RfmqhQGuhqqA+fT/MyGZmddv3rx14cJ51T6wBCQs/MtuYclkUpmsVqsfHPrYqVNQJ4ag5s2bGZHICMnJycOHD6cBE9GtW9fDh4+wm/x5eXnnzp3bsGH9kSNHyRHSx5bsE5Q5nACFHT16dO/efTjmbWTjmJh3SUuv6sXxVpUiiGuOGzd+wIAB7Oa2ViB8u3cnrljx9/R7+KaaH1S1JQNfbdq0t/r3D9X1clDkh4dPFInu4DpqTSB4qz179nzllVdQtYJS+/n56a1UcQQRSUs7s3nz5rNnz9FDHOIyYcL4SZMmsRQbEydO2LWLLpak9ilRAL/00kuQaRQ/qPlBtTl6JLhQVFR05cqV338/BxFXWk4EzUipZTF8oLFjx7366qsdOnSkhwzEBNotF1fe+2aFOPsqs7yOhaVcKrZr3dlQ4QYPEtaVnT+uqd1cOhdqpeLGH6I4xaQEigerlUlr5bKm/1qst6v4Uw0sgoqKCtI1+9atWw8ePMARHK9Colb0USOnEeztGX8ULC87OzuhUAipcnFxgYXVrFmzgIBmL7wQhHoxlMjKysoIxVEDlXSOQygNgqO84iXcvHkTr+XkyZPZ2dmlpaXkbeANIPpeXl7+/v6IeI8ePSDZOGhofIkhduDAAVz84cMCcmVoH5QiLCxs/PgJnp6e9XyHpBCCoXfhwgXsq35QEgtoE4xKyMHgwYN9ff3Yb4dq0NSpkwsLCz08PDw9vfCHiDus0fbt2zs4OJjki+sC76q4uPj8+d+RRElcSkqYuZrV4tKhQ4devXqNGjUaaZL9YQYM6P/bb7/ibbu6uuFTdu3aNSQkBBVEMuG1CcVaFyRGyckHrl27lp+fTzIdIqUaI5LFSLUVkcJLrueDmcbuhnyXXvyl5HyqJCcbwu07boahwg0zmVm+XWNkjby60jd8Hpf5ZrXCOOJvXK5+kF1bI7Fr9YJdYEejL/VUQ9JWeXmZWFwN2cIRGwW2tths7eygMnqyxzMGLKb8fEhGqYuLs7e3j9F1Z62gDoQr+/h4QxMbTjggeY8eFZF1GBALR0cng7wZxGbEjre3l9Gmn0lA4hSJ7iFlErc14uLm5m6QpQ9zHqka6blt27am/ZRGg0ihCM/Ly8dTubq6wAYywiBgx2R9BAH0FyJu3FBysSjrXuzHmpV2aHf9LeX6PBgPDw+PGWKafiYE2NpG66OkKF9WyTjv1aiVim28mDG49aE+D8bDw8NjhphSu+tDRWaG6jpnqjylwyB5eHh4Gg5z0W7HF4LpXl0s7Zy1rnbGw8PD8zxjLtpt16y1bWBQrdr6CXK5wOEJLFnLw8PDY+aYi3ZbObk6duxeW1Onb6ZcKnYJ7s/7THh4eHjUMBftBm6vDCJrSMLcZhaykcsR9AgdTX/m4eHh4XmMKfsImoTSy2kPD8W7BIc6tO/y9E74x8PDw9OgmJ128/Dw8PDoxYx8Jjw8PDw8HOG1m4eHh+fpg9duHh4enqcPXrt5eHh4njaaNPl/9uuVRTVU4lwAAAAASUVORK5CYII=;" vertex="1" parent="10">
                    <mxGeometry x="494.96" y="135.34" width="86.69" height="19.32" as="geometry"/>
                </mxCell>
                <mxCell id="32" value="" style="shape=image;imageAspect=0;aspect=fixed;verticalLabelPosition=bottom;verticalAlign=top;image=data:image/png,iVBORw0KGgoAAAANSUhEUgAAAOUAAABECAIAAADx62UKAAAAAXNSR0IArs4c6QAAAARnQU1BAACxjwv8YQUAAAAJcEhZcwAADsMAAA7DAcdvqGQAAEAPSURBVHhe7Z0HmBzFmfd7tVEbtNIqAQJ8YHzGAeNwnO1zOoztwwHOhsOYICRkoZxzzhnJgMGYbHISEhJCGeVVlnZXq81pdienzrl7Zur715Q0LIskfHf2d6d7Vs+rfqqrK9ev3nrfnu5eTtbsbumWy0W6ee2Wy0m6ee2Wy0m6ee2Wy0m6ee2Wy0m6ee2Wy0m6ee2Wy0m6ee2Wy0m6ee2Wy0m6ee2Wy0m6ee2Wy0m6ee2Wy0m6ee2Wy0m6ee2Wy0m6ee2Wy0m6ee2Wy0m6ee2Wy0m6ee2Wy0m6ee2Wy0m6ee2Wy0nSvOrWuWNXMSRDkwxFZqJrNEa3BT0ZN0jEICGDBEwSMIjPIF6TCgI4DZokYhLeIIKBYg2IqqWr0FxZS0pMdDctdlpcJEYWlOaxSYtDWmzSZhOvlS7KIFGDoEakQWJVM3TVMBV61FQr3R4Xkr5kIwaC6ljJn+jdZx7/d8ql2/z/8/hfk0uXqWOyzh//CuFoNooUO3YWTTIlORG3ieyLN6pOOBgFRVZIVgRC6gTSQUiVRZ47RkY90373qro7l9ffvrB68BOBxZvdnV7iISRGSNxxBF2Ii2FVldEgUU7JGomKxBexY3JSdYhsJyQnETMSHo2cEsnLNWT0RvHnz/h+8Xz0rhcCUzdGX68iJ+Kk2SBtFgm7JMCLusITTU7Fo0YwZCmakkj5dDtkJ3nD1VXLlQxX0kAzlkrcBLIYCLpauhwV1VRUXVYMWdHYMR1jdhmdv7lgEP6TcuH2/72PbHw+dfxPjw/GXzKg4+ixM2mOS2wnYVoJ3WD6haoeTbc13YFkuo+wbriGmcjEgNcMoBBo0PNiKJIpakSIGtCbvD/eahMnqCjxFOlIkL0+MvHl5n98aH2vO9/ufc+u3r870uf+kwMersm/62i/Bw71u+edb49/5097OryEyKDWtM0EMR3Ci66VDkR4W7eJliI+kzQa5IRA/ngwetvyfddM+mjAnIbC2d6SRbG8yY29xh25cfqh21cdm/aO5wMvQWkSIbpt6ZEIicWJZpiCGBDlOCFBOxk3XVOxEpKWEjVwzJtW1Mrw2lXSE0AlzStgPX/6qRH/20pm3P86QeMv3P6/t2QGpIt06c5nCDBlvKalM2mSrGLYNWyVumkYFo4IU0nzmkGWhYFsZky68MrkY2RlU41KULEkZjhB7MuE1Gtk9abILSM+uH7w9gH3Hej/UGWfofVFD9Tl31+TP7ih97gY97szufcf7TN495W/e+Pu5Qc31hI/oUZCe0x2CYnEotFomJBkBP9M0krIe1Hy8z/Xl47ZWTa3vvdSPmceX7gymbXQhBQss3otFgomne0zvvyHa+tmbI0d10mEENUkWtwkquPIWkSQhVQyYtu8aeuK7UpWQqTWgmAacYsOVpeZYNJlGjLSdcT/1pIZ979O/s/yyguSKCmqqjNeQaqiaJKkZHiFfGo0qFyQVwhD1ohLKuCIaiTmkmaVHA6RaX/xfWnolrK7tg18qGrAI20lQzwFg9uKhnpKhnnyhjZz99RxI4LcsI4eQxqKhlTm3bnp62N3rtjKN9ikSUrCPDCIZSR1GAkxWQb9Sw+a31rX3G9+Q//VQsESuedys/cqm5saKF3h5C22uAV21uJE/lKzeGF04NzGz88uH7/J/1GUWhoSzNmQnjJTWANBmY9bBhSqrriWbDuSDcMAvPIW7UKXmWDCRv/TMV1H/G8tXUb/s+RvxqsGBXYh6ZLsM6VLdz5DLs6rAeVyXq2CWsAqQ+PKKnrdBVlFtSCZMWH2a2fpXK4lCIaoE59CWjRSY5IHHq0tuO0vZfcd7jusMf/B5h73e/KH+POGeHrcX5v/UHWvkc2FY3zcg03cSCFnrMXdG8wZ4h84sqH4ztdnvtvRTkhHCtrRCTh6u6HxhDxdHrhm+p6+SwPcdA83zTvwUavf4mjh2FNXz6wpeuRwn6l1vRfGChfrPZe5vVY6pUvE0pl1V88pH7o+cFCimj4cJ6ZOUlDeUb9gKgBUU5K6kjTlpKbagqkhEquuy4gzYbB2mbluXj9TunTnM+TivMJ4BbKAlWGKgGnajpOQFVjJlM7OvCIyMyaf5pUJhRUSFdWgmIKjc1YlI57yDLxrU49f7Ow7op375fHsIW1l44Klo1oKHjrZ88Hy0sEHSwcf6D3s2NVTOopHR7mH+eyxhBuicnc3lA2v6nvvqyv28i2EnDLISZ2aAS9Whm+e+U7p3LMFS/kBj2rFs5rzH9l32xO+tafIi3VkQ5AsP0xufyo8cEpl7sTawvnRwiVK/vxQ9owzJRP2jHxPPm2QeILERaLqmqjEZFhEUKVqUlWIphBVhd+lCRYiP4NXjBoduP/rvFJldiHpkiwjGaC7SJfufIZcnFc61GkDANKZV1HSJZih1Pc6p2IvqV871YQjKgtKIoVVIn/8yMr7wTN97j1y7SQ+Z3Bz2cRg6bi67Pt3Zt39xufGbv/lYw2/e9pzx/LKb4/98IrfvFp0987ew9tyH5G44UbeGC1vWGv/kScK73ph5bHUQUJOEPJciFwz5e1rl54sWBLKXRTtOe7oNxYef+xQ8oxBOmziUYhHIiE4doRs9JB7XwyUjj+cNaWp7PFU1gqRG19x3dyzi/eQCoH4ZBIVFRudMkSAK6vknGhJifqLF+UVg4UjJozxymaO+l6ZEfj7SGbc/zr5P8urIMpwuYApU7GxGO/3Bz2ejjivCCI8YNRF3Szmaf0VvFJxBcP2w98i5P2a1PV3/2XQA0f7PNjS55EYd1998ciq3Ac2XTfx/TEbPZujpJpQlQn/vVYiGyrIfY/W9L7rA+7Xh/NGRvJG8dyDzb1GNWXfuyvvt+uX1JAnBfKVdXX9l1blzq3m5rXnTK/91yc9z1aRVodoBE4/EeMqSZJ4VPdFzIBD9sTJ6A+Mqxc3c1MauTV2z3VO/uT6WxbXv3aGdLj0vqyTQPd4WEEgVWKiwcCl9zcAcZeZYJLh1bQcCJu5bl4z0gXTjHTpzmfIxXnFUKN2101Cp0LFgtRTpyr27z8Yi8u8oELFZnhFoPOYnOOVl3Q3RQTZklT43G5cNOwE4a0UXPs2Qv555CtX3bN5wANNvR/kCx6IlI3wFt6/5Qtj33r6jAxMW5Kkw6L3rZp8xE4R3qZ6cdxLzb3+493eI05nDTmbP7Kde7AexkPOQ1WDZvq/+UySm1Sdv8Sbs7C1dEHDtXOPP1ZDqlMkaBHDJUI0RpKOIcSIYyYcN6ImW1yyTydjdiZ6Tj3OLZO4FW7BvNg/LvTdvrKmyqK+l2iZ0K+aBn+TwipA9M/gFfZT+eGj767fsHXbjl2797z19rtxXrwErxicQJgXMI5mIkFI+dFTz7/02kf7yt95b/NfXn3LF4whXreSCEjYy8xEl+wZwUxgDhyXuAliIJmCLYBuf5gnBCCYLZxadgpzE47wSAk/2nGTOMJS37Bx05YPt72/6QO0efdHe9H+0xVViGcmDQtAdSF95ohIy3aPHjuxc9dH27bv3LFz9779B9Hf/QcOdRmTzoLS3ETK5w++/c76TZu3oC5kRHVPP/sSui/CytTBiY2eQgBP5z5+LBfnFVWAV9t2LcvheRG8trd7EWhobOvwhhim6DsGBKPEtOwneMVMWBgaxQavqgFwHUlNBDXSlCTLd7YP+u2rgwafvHKYWHy/UnR/tP/gs597+P0/ndBgjzapol+KG3bKUokhEFOyInG1QyX1STLxXf/AoRsGTTzT48EKqOReo4WswV5uqDdnXIAb7ylZpRTNa7h66q4VR5MNgD5F2qWklSSmoSgxnyEGXFMwdCmqaMEEaXDJS9X23a94uKnV2SusvPlqn5mBry2oX/5RAsvJrycw6ZouwX6FihU0yiucLfB6MXsAU7juD48X9CziuB6Q/ILC7Tt2XcJ+xZSEY5KTJJgtEDlr7qL8wlIuu4DjcvsNvHr9xi2YQlzCLOJqHDvap0pgYlpJCDCNxiQwCjQxMRl/AhNjO8ArxbSL7aRicckfCIEeXpC8vsBPf3Z7cUkpa3N2Tl5uXgFiPO3eWFxAp5AMewVWHXoHUjN7CFi/6WtfRx9ZxpzcfMjESVOQLDMgXQSXwOuKlauRC7UgV2nvssKiEnQZS1Q1XPTFH4qnmTH/a7zSWiwHAmMAvHZ0+MBrc0uHpz0AkwDrFqQigGH5lL+l2SBVtzDcKVFxsSNjMUfjVkAn5TL51pStZb/dfeUwb+lgPe9uMe+Oxn537VuyWfekfwvwBhtIQsaWrPkMohJLtoJRXiQkRMgxm4x/t73vg+/0G360bER7rxHx7Idi3JAIN6S9cHKoZHZg4KSD89bXtln0lmqrRQIuiWAuwasSVdWIqsWjqhTU9HiSVtQuGluazKtnHSpdxvdaauZNDQ+c2fbNBacOacSbJLyJiZc01Ya/RVUs5TX9+9xFeMUsPvHHpzANmI+SXr0RgNa5BK9MZWYU5/RZ80Eqk9yCkh279+MSSMWyx9F0YEB/IntGIlFocTr6cCwQALtsVhJJiinioVFwiqsIm1YC2pHqIScBgNC8f731tgxz4JVhdOLkaVxCGvAK/YowssA6jETjwBedPXmqIrMyKXxZ2QiMGDkahXcek87S5ulAOf90y7dZrrz8nlk9ctLh3LETpmLvBanoJnqNbQfIdunmObkkr2ghfCzwGonE2trafb4AeIVybfP4g6F4IBjDYsZQ4Ah2GayQc8+7MF4Nm4hyErBCS2EniSbJsp1u8T1b+g+rKx7sz/mPUNG94cJfHf3pnAbAiu1bkPikESQJleh6Mp5yBWKZybiu6dC7sg1b4rRL7lx9+KqhWweOrCv+vT9/mNBrgtVzVLR4vLdw9Nl7ngvUxzBPSa9odWiEh+0hGiE+liIwregaC2tKxLaVJHGh1xxRcMnwN9sHLWi+YoVdOM8onSOUjDm+9jRpJyRqubAHTMXSlbSKTfN6ifsDmKpnn3sBE9AjO5fNJWYdkR+P9ScFez0EEwMioUdXr30iJ78YpEIKS8pOVdYgMhKXcRXKBim7ZM8IoIQGBabgEvoVXOIU9WY2PkCMAGKQMhIVREkLR2KwVRiRjFe0OY3OOf4ef+JJkIo0wVAEpEKz4hQBZASvyLV02QqWGD3F+kR2sD55yrRL6FdUV1lVXVTcq2dhMTL2Ku3DSujVZ8D1X/hyfZMnGBGw22BAoGvBbpdunpOL88p2DAMa1nKCwXBLS1sgEIrHBaxnry8MWHEEnRgNjAnTsp/gFZYrYLVRsUqicVvRaLjdILdMOsHddax0eEeP+5py7mvqP7zphuGH36ojgRSJKYS4FrFELdThSDKIkiUSV20eLQAnhPh0qvkqLPKDWXtL7t3Re2RTz1HhgrHx/JHe3KFnyx45/aeTREI6XcX08CYJasmYkYiJgmlJFm2qJFimlEjorm0bPNH8Cdfe6iHfmH/8ygXR0iUkb36yZHbwZ0+3VqQXD3i1FMOSbVixgp7k6e8FF73/iql68qmn2RxgyqE8YM7C4Pt4rD8pmBVQGBNUQAk0lyxfk9GvkH0Hj8IiCkVFpIF+vQSv4JLpTmAKgfLAKY7MTkA8U66YJPCKlQxBq7A1o8EYpdt//kvW5oxA8/3wR7eyHjH+ojEeR2AKIEAtyPvGN/+J6tSsbKaSIVDPs2bPRbFsND4tyAigM5gydd67T1/W3/c/2I5uwh6AfmUGUpdunpOL84ryYcMwXr1ef1NTC6iFooUqhXIFtThiQNJGETaBc7BCMrw64BWWACQctVWdYI1vPen0u3d/3sOBgkeCOb9vLBxxesCovXesOw2ztSFOjYeUprpCGL4RtnDeSApJErMTgFXScI0Eg0JMpYbBO03kiqEfDphS32NMK/dQXf44b8mopuIHyoc97Y0oxFEdJOa1VFR2DWz9Olwnid5LtlXZMRXXUQxsnbwhhrAKfCky+JmagVMbShYRbjbptZr0mbT/xSbiReM1DS6AI1makqRPkFlG3NIwTF1mggmmFvbA+T2OzsfBQ4cvwSsUCWYFRGL7AzjLV62DKZGdVwQrNiun54Hy4+A1yivYIhnZXbJnhClOAIqhRwBeF+YDs8L8YswQEuA/XawymEvBJGAmKXQnjv92+y/QVGDUr//ATOMhcJ6YTgWd4BVh8Ir0CKBfNE3aBoCyBN8sy6jRY7uMSWeByfvNb92SSf+97/+QsZvXsxd4HTF6AjDFUECzYg2j4126eU4uzivGH+0Er7btwhhoaGgCrxTZNKl0bxVU+FvYanDE+HTlFd6VZhJsIKZNYnxCN5GITFyx48qh1cXjjPyxgZwxFUXjt31u+tuPnZHhHgUsjKmmhEO2KCSTbtQ2GnQ5ADVJUrwqp2xD8nrtsERs0hQijYTcNGVP2eST3Lga7uHqvGmh0km+ng8c7//rd/+y3/BIJKqTsEAbAH9FNB3RdkXTlmyoS12EGavaUYP4DdKqknCKvHWGXDuluuc8l5tF8teSoqmnhr3d4gEouobdNIG1oriSlkSTovZFeYXx9Kenn4EDgenHEU4M9Csm6eOx/qSAVGz0aB64xFQtW7mWaRoq2QX7Dx1DJGCFwCS46PxpdntHEBMAKAFoZVXtjp17n3n2pVmzF8yes/DxJ57esHHL8ROVoTC9LYCpCoZisAewv2N+0WaAC++K0ZYRasxkZa9ctQZlIgEARdfY7QJkBBZTpk6nKdO8QqiKTYehPpGl85h0FiyAjGMH+2HX7j2/Hz4C+MIKQpcLino3t/nQHQwIDIOLrs+L8wrVAPOa8drc3FpX1wBY/f4gjFdYAueXK91/sIY739I6d39A0l1FT/g64gn4CrKr2KRdJl+958m+Q2u4R2JZY33cI+W9xr79w1XrAeuxiMC7CV2TiKMRS4vx0aBl+QipcxyfqWPm+A4fFCaRk4ZAQg75w/7kddP2cyMOcFNauXFt3Ohm7pGaq6a0931gz42D3zmt0HtSIXqT342EeVAL7RiDS25aQD8oCmHVjiUIFoMHrVLoXd6vzzrVZw4P/Zq1kgxcGfvOyuMNCfpoLBQRkGW8xi0LKhZD02UmmGC8nn/hJTYfTI6fOIXZZaPBxrrzERufZrmAVbcTsNsWLVsJtcplY3vNLSgu/WhfOeLjohYVZOgbUU3/bnmhcjAB0KlHjp6693cP5ubBbs7hslAINGVubl4hwj0Lez04eFj12XrApOn0twwYpoAPLEJu+8nPMg0GPQxWhL/7L98HptAgSM8Ep1BgUNVQk9DEGX8LAv5gxU6dNgMFdhmWjMybv5BVgeP1n/8CUv7l5VfTheSU9OmH1r6zYRO1sHkJ+4linKPzAsfzgjKxAcIS0jUFQhIuHwk7hp60nebGptqzdbBfvR3B2rqmNo8PvMoK1meSFxQwqqjs/gDdlMBr+tFBy5FAikMcGFiiHHbJ8xXkqmHb+41r4oY2cpP57HG1Vzz85nMnFHhRQZXOq6PyROwgUoepiREr2ZwgjUnigX9qOi7vkDghBgnFyaZm8vnJRwYs7+Bme7mxYW6anjU1yI0+23tGc8GwQ33v2/H7ZzuqYStb9NlWaB7YF7ZO2YUBGrUV6Ej4UlGT/i4QgZa16ZO1S/bYV086Vjhf4uYapcv0AZOObGwlAR2WsGbIArYSrLeYZCgm9pEL3xLHdnnOfj2veE5XVAGL8wlYrk8csdVCLwAFALd4ybIe2fnpvHRTPnb8NGVdoW7KBfNmjqKgrlkD3ZxTVFSCY25uPiuhgOotNINt8Tk/+cnPBJ4+voQmpcukJWON/eSn/4YEzAz98ldu6j/gCgQYVdCIiSQUkg6+0Ri0E6dbt+1AYuaf/fO3v8tUJrwoHCdNngq1jVXhD4RQPgqHvcs0LvJSkzc9LBCQjWYgWZ8ykMoic+6489eYLOQKheMoJw0ltAM9ntOpaUxdeESSZekJVVASikqwvfPRpBBxYn64PUSVEorUePZsoMPbWN/S0R6IRUX4XpaZUGDMqNS6xZjTpXi+fI7+jGlIgENQDWzfjqgqigQzcfI2t2TMiV7jG7kRLdzEWM74phtHbtzRSMImEVV6W8dSRSJ5iNQKXsFTm0OAbAD7sptMKMmERPg4aTfJPU/5+0+tLVrG569JcGNAqr9gijdvfB19KmDcmT7DTl4/fNcLlQksg5ABm0YkLrEkamLDwY84SsgBrxZv0r0AXr/fpLy+cCrxpck7e8/2c3PUwiVO7yln/3SC+LF9GLahiLxiSFDSsqNpifOsdJXP4vUCkuaV/n4LNyXNa24m77HjJ9O80udou+TqIrNmzUH67OzcrHTewsJiIFta2qegoDA/bSn2SFulOTl5Tz31tOtiK7wwr1CZ4ydMmjBxMk4hsDLnzJ0PQJGSKVcI4Bs7bgKustsCL7708ne++z3AyvCFv4X06Av7oYRVgQBU8s5dH7FikRIlA3oUhcQPDXk4L68AbcOlkpJS7ONQbWxtpGE6J50MAEuW7XhEsVQ77gvyHg+R+UTEa3gbiR63gi1OxOurq6qrONnSUN/e1gFYo9E45dVyKK/phwow5mlezxV+jteYrsUkDfrV5HWY/Z4kue3Rs6VAakJrj4l+blIsa0ztrfP216okoBHQwBt0aFJKkCheGAZxMwmPp90h0QRBUZZjR0QX4WcPkmtHf1Q2valkgVG00OLG1X5ueSTrocPFo89mPVKTN6q+z8ianDvW/3L5Ydi4XpMERcO2koYGbugDgXCYoGLh5ksGvaMhq8SvkY4k2ekn/zRrX/H0Nm6OlgteZzRNfs/vTxGoVV1XRSPBg1TVpbdj/5fx+sorrwFWTDl4/dGPbn322eePHj1O7zt2+LZs2fq1r30dpfXuXYbjffc9kH4e9KL6dd0fHj9wsBwBFvPFG78M8himMA0RRq5rrv0HXAVzX7v5G7j049t+mjEMYL8CQXQHVcBwh7GLTT8UjiI7TFX600BWNii/4spBDY3NSIkR2/j+ZmTE0kpvCz1ef/1Nx0ngUjgSy/AE6cSr0eENQXEGOwIVR8p3bHjn1J5tJ3e+v3f9i4c/eH37G3/et/nNretfras8Xn+2qramGv/AK5bBpXiFPYCdM6LrYVGHflV5U3VIjUWuHPlB7+mt0IVZU8LcdJEbdmLUy61hQsI6kWwSsggYNTXeUSOaDvVsIyZok7BhhjXFpwkwNw/EyPfmHh40raL/3NDAhYm8sR3fWuebX0UGDt/be9ixklGteY+0lo5pKX6o/OoHP1yxzerAQLukNRigy5K2ij7AyluSYIlYURQ+NRlRXCyMWpfctuJEzynN3DyTW+SWzm2/Y92JNuyGCaJZcNRIXHUN3VVl+jhFhpXO8j/FKyFk0qQpUKVz584XBAmnONq2q8PDJQSmAnQtVBfK/Pa3v4tLl+AVChV4Dbr6WriMOIXGPVR+BOnRPOrKmPb2HbsQD+ZwnDZ9JhTnjV/6CsJMRo8ZB9RYp9ByIIssIAPwXXf9DSiN/awFnYqxYgmaW9oGDboGjYeWxaVbb70NLUfHUWmGJ0hnXuvqG4+UH26qqz15aP/G117ct/ntIx++vee9F5qP7Ty+4+0d77648/3XIt4GTY5GIwGvtz0SiTQ1tQBT+iysCrP9IryGdCOkWLZJJMGVU+RAlHD3vFE8y58zI8JNiWTPVbkh+/50jN7SF0GDQXw2CdgEbdLgwetU/9Hno00rDj3tOk2OWUfIb1+o7zv+0FXLov0WqlfP0T43qXn5cXKUkHFviv8wbH+f4S1l48VeE4KFj9QPGFJx49A9+8JUd3p1OW6G2E9Tadtaks2YavDpFwldQdFDsAoIGfxcc+HkBm6ewy0iJfMj35q1u0IjPCbASYpYS6prGq4u0TXaGZeM/E/xignAHrp+/YYE/U2AQD+hhZj1UCiCACCG9mJlfuUrN0HpXoxXMMocpjFjx6MZbIuHk4RCMbtQrgiASEQy7I4eO4FCoIMRpvZrVja7P4DEKBm1oGsIgOAPtmxl64FlZMYAEqAuDNoDDwxGJLYIHGG6QBei1yg5wxOkM68xPl5Vedrf3uppqN6/bcOBLW+Xf/jG4a1vnNz17qmP3tu98aWqozv4UHPCEWIxXyjsC4VCjY3NBpZQJ15RRaZwyqtgKmHLihgpXSOiTOIp8k69zT2wMW9WOGc2z02L5MwVc4fv3xkgUWy4Nomqzrndn77eR901VZd0nQe7Bkm16nYrISsqpYIxm0vme/quShRMj/cfU3/3U+FyiVQb5LBAbp1RXvibQ33HxArG+bNHtOX8tm7AfSeGPNnGnl8JWmHepjoVK4H+ymrENBQOB1O1YJ7GVTtCyMzNUvHUJm5hiltIihcrN0zejuaFEkR2YJCkBD1p6paB/fRTxDD5n+IVWz/oBKlJrEwv1h39B41SVVX92GNPXHXV1SgNuy0MBvDq8XRcjFfUvnDREuC1d98BxDBegSNaCLeJKiRF++pNN7N7tDd//ZsoAQoS9itOmT6G/QoEkQyJ0SkMCKpAdaNGj8VVJrAK2tNrBmUiMcB9++13EY8dgGlZmDfoODJmeIJ05tVJuM1NDdGQN+JtqSjffWDrO9vefn7Xhhc/ePWPp/dvOnt0px7zGJLfseKiGBLESDAYbGhowm4DW+hSvEbtRNwhokIfbgolyePlsZLx5dzMcNYckYOKnea7curxCplEpYRpmjFJBaxtLqFvpZoGeAWsrhq0tLCWStbqZKtKblpzlJtVmb1S67mC5E2K3jjl6PMn6GNcLVH6C8IftouD7t9dOPhs9khPj9ER7q6Wa8dFB9y75enjKbDe6opRh5csMErvfWADgNC7IZqU0uNYd2jhH46QPjNbuMUE+rVgmXHd1D2v1ZAOhwguCSiubBETzhd0tHrh37f+B/VrIBACrFAhe/fuX7fusbFjx8NUZRYtiioqKoEThsB1133+EvcHAOKChYsRA1X65a/cxHQhZMuH2wAWZP17GzOu1YqVq1nzGK9MwCsrGVVA0C+kOVtTd8MXvohcrIqHhw0HoxBUBIFFAYWKRZVxDW+77afIhQQZniCdeUVnq6vOBDra+YA30t4caK6uO76/qeJgw4l9vvqTHfWnY97Gjqbq5oYzkUhHMNABXuvrG6FlPoPXuJsSk8CRQEP6kmTJTu8Vcxu4GVFudrzHnCg3rv4ri6rqNBKLS5Yq8mLcm+YVBut5XmMJ1WtpEa9swH//7csdvedU562zsh8j3DzSd3b4rj9W1ttEs0kqSfwyvYf6b/OOld6/r2Bka4+RkZIxesHgtiuGnfzRwiMnU6TKMgNJibdj6UcCDPpUgGpA16IWYsYsVfLp5MUzKLaNW0q4JaRgufv5GeVPHzfa0B6XeEULJrgpq9Ae/9t4xTTAk1iyZNlNN93M8maE8QrBbgur4MYbv+zzBS7GK1iESYoYsDJz1py+/QYwZMeOm8AIGzFyNE4RCR156nQlg/imr30dvhdTuvMXLEJHUD5ajsLReOQC7rjEfkNBYNLkqeD+9Tfeev6Fl1586eW33n53z559119/Ay6hkcwqgIUKMzrDE6Qzrw31LTWVtcF2f9QfVGMRS4h768+011b668901FVFO5qUWMBUhIi/PWkb3g5PIBBgvMJqwkBdgFdwAF4DmgleeYVEFdLukllbPL2m1/SYr3EzQmUr1JxpTddP249d2FBkRwrBzQo5VE3yCcIbMAVkKHMt7kGBHps8U5H83LTKkgUat4pwU40+j5KSsYd3S6RNtRIm/EzCyw6K2txKrh36XvGwytyR/tzhwdJRwd7DawYM3T7izbomQjqI41UCCZK09IQcs02NyKqQwjION6QMFXbq5gDJH19dsJZwy0nOUuuaKQf/fNIJwmMziVdwFCwMy7kEr5ibxx7/I9tYMejwmtnvBV2SZQTpsZ9iyrEzYo5XrlqDXExQCKxD7KoYWWg77NFIxh7wAwcMODboCFdX1/w0zRzNmK4acvPN3/j3f//Na6+98fLLr+IU9kDPnkU33PCP4XAUbjtbIagdcuuPf0KzpJ8EmD5jFlYdLu3YuRunjLABA6/0tHuRcuAVV7HCb//5L+FCoRA0A4YBYiivafsVTUWXcanN08HQv+/+B5m1gATMUWPjw36VpYH0qkDz2Glxca81j65DXtW0rEQyFIvD3YvJckQUzWTSTpKzVfXtTX4+KMhRWQzGoh6fv6m5va421Nzsb2qMeNrkcKStoUEIR6U4H/D5I5FYS0sbNdwxeoqWvv/6KV7h3ARUTUgQQSYxlT6kMml9ffG0s1kLtOy58ZIl8dzpzTcvPtmRINAPRIukTD6su36LCJhg25RNiqwBah1yRCR3PF7Ta3xzwQLCrSQwLrlxtWN2umehvHXekaNEUwSeoldjkekb2ovu+bB0RFPhI015wxtKx3h6jzh5w4Str7TQR658jhKWlASMPQdeYCKmxHQrlJDaHUX0qeS9dpI18lTeGqpfsxbpgybsffqEzXj1SwnYAwnTpc+SXJxXDDQbdEw25ga8Ih6TejGB0w04MLvAcdXqRzGFoBwKDHnZb7lIA0wRCATD7BRHlIkRRxhHwDdkyMPYTLHpY8ox9zNnzq6oqILShb9l2+6hQ4cBMWwDGIhf/erXYjEeJbAywTra/Ovf3M20I6oGr0AMxWKp/OCH/8rw6lXaBx7S9h27gC9D7fEnngRPF+MVJaMECAIwVT/3D9cjAZA9R216cFh6HBHZeRNAOxH4l+/9AH3kZQXIxiUZ1IYFIa4ouuvqdqLmTFOwPQ5tJkc0wc/7Gjsaq2pPHDhyYt/hpjN13sa29vqW3Vt3Vhw7xYcFKSa2tXja2tohGA0gC6sJbUPfP+YVDo1siGFNg+UHZ4vXCGZ95KsVhVPOcPPl/IVi3txA7oy2Wx5tqKM/IBnEFCC+mKDAajHNqMDrKWo1+mSng5Cp7/sGTTrUB1bvNNJjASleSL60vHq7TsuUjLgutDkyumPETHqr4ahEbpm0t/R3+waMO1PwSGXppED+I3Xcbzb+5un6SkKaHVgONtxoFXZzLGmRZCDeQuyILgvNPHm7hXDDj+Usp/Zr1gJl4Oitz5y0/FgVJv1pVzKJo7sadOGnSGUC8jK8spk+cLAccwaNdUHBfEOzYoIx9+AV9gDLi+nEXCIvhhW6CinBEARsITEQYXxD7yLQ2tbOckGDwvhbsGARSIW/hV0PR3jEr7/+ZkbpDhhwRXu7F+WgqSgBheP4r7feBm7o1p+VDV7REdCMNMtXrEIWBtaDg4fcdfc9OEXbQNiZ6ppL8Mr2ATQeOmzDxk1sKJiwO7W9+/SlfTyvaGl8QSG7idGv3wAWU1lVLSgqBFsPeA3G46Kuwx6AB1Fd2VR7uqWhytNa6/W3RDz13sN7j7z72vq6U7VqXLNkK9Qeeuvltza8uaGt3hP2RTo83mAwXFtbD1Kp+X5eg3zMq66JqsFHNVW0krKUgr8FD33UK6cKJ1dkzZfzFgg5swI5s31fWdHYlCS6RVIq78ph5BEM27IsNNGrJgMpUm+QNxvJdRN3ls2o67PEyZmdLJpDek3wLD1G6gmJYnNWw6rk0fWIpCUjKolaNoyHx7brg+5559ox+3uPOVE0ycsNby4YUT9w+N7Vh/QmbP+EhHg3HEkqOjEJHP9o0hawTbQo5M1W0mPU6azFKW4+yV0gXjFq88uVNgwI8Arhsax0R45flFdMFewBNtxMl8AGxcQD2QsKdFg0xkNBMvLWrnsMmoxOfHqvZHmZOcEMAyhjWHUQ6AakRwmABiYy0peW9mH+yvHjJ4Eppgdzw+4bPProOsYrVO8tt3w7Go0jO4S58JDv/sv3cZXVO2/+QrQHgupgkAA1tmvTp1LO7+ngGw1G7RfjlTUMaVDI/Q8MpkZFWpXCrli6bMW6PzyOUYK7tmz5Spj76PUf/vD444//cfz4ibScrGwG7qNr/wAzACSIqgZeo5IERQYVC16baz0nD1UB1paajo7GoK85vH/Hob3bDjSfbbNkO2mkbMXZtWU3eG2sbgx2hEKBMHrN9hz2kwEWEjTFx7zCGMUq5Q0Z/ClSUkrzOndTQ8mk0znzFdgDkKz5fN8ZZ+oIUVJEk0Q1Cj5JmzfgGPTplnqewOLczpPb1lUUjD9esijWY06sbJnZd6r/B8taymUSTMFmlahVo4d4S5KS6btOouIXnGaF3Lfk4BW/e7n3iD25Yxu58cHiKUL+kJPfmLRvl4/q4Ga/CmVpENIUiQNZlT4d6nY45Pk6UjylPmtBgoMWXyReN/aDDY30A1txMxmnd9wSuuYovHwxXtF+bJR0Us/ryA+2bIWyAXMXFJiAyJIBGs4KywsBuNu27wQQSAb9iiM0IlCAOkQkjuxRQFyCGmY/wOII/QptmsRQyCp8C4BbVVUNQxYF4hKOcGu8Xj+KQqWYMKwWlAB/i2k7ELlw0RJmn+AqKv3xbT9FL9hVWkia++eefxGdZbhfkFc2FLha39DELGBwj0IeHjYcZbJLqBe9QGKc4h/WlcfTwZYcrBok/upNN4NU3XZgFRiOSz0tbLySpJpOa4Pn0O4j/pZQfWVTxbHqqhM1m9798MzJWl9bQIzKclwlCVJXWffhxg9gFRwvP3amsrqpqaWhoYl6WjD900b/J/QreIXOU2yFvjAju1CxkQR59rTWa9LJ3AVy9hwhe6HKLTKzJ1Rt40mE7nGWEAlCJZiGK8PCkh04XnsVMvStSOHoPUWLY4WrHW5+pNec1kHjD7zWRN9ygddgqaIkheO2ErCteIoqS1NL6jLRkuT9k86XH36l98MfcCMqC+Yq3BBvn8nx3vd8dP+qs1URgv0youtxy/CqjgQVK6mCRb9eOH+nWTarNWuhwy0mvRZEb56+a2+QxLDBaTbvkKDkGEZKU9KfD7mQYPQz9gDzrH9z1388NOThX/zyjgsKrn60Zx/GDnoI04a8xSWlmd3zhz+6FVvwL391J+Tnv/gV0PnVHf/+05/djvCd//6bO+789Ydbt4MquNJlHz8y0uM73/kXMMqMgRMnTt1zz72IhFF4RdpVArVr1qyFS44agQ5UIBQheEVrAStwnDJ1OloC/YrpRAC6MFPyuR9ds7JBIa5egldGA0o+d7ekE+goE+sBVwErlihWLC0qfUsbDWatxdpjbxPtPXgIKhYmQfp2Dn3eRdA0WLRyXDm6/+ixA8dhBlSeOFN9umbT+g+2f7DTVGxV0BSevggtx/gj+w++9cor+3bv2rpl2969++NxgS0MrGSsFjTvY14tLWbqYQPGnqJCOctiImCSXXFSNvlk/gKl5xKzxyKb+jTT2mbtsJpMAhcfpko0ImC5aYLgi+gNCTJ3p9Zv/J7ieW3ccitnLcldFus189i9L5/1YJdMEikQIY7M8wHoP0+CfmFAThIX9GlEV+ijtPPW+z43dic38lTubIm731M2MzloWPugX61f/vrZsEN8asSvRaCCOmDIqk7UIidi5NfrToHXHgus7OWkaI7vh0sOVShEBNCqAf3qFyyYLqZxqeddVq9Zy7wlNkMZzXQxefW1NzDrEEwksxchIAMZ2QbNhN31ZFtzJv6dd99jmvJ73/sBdBLcKeasfOELX4ROvfXW2/r3H4jTH/3oVlgLCGR+5YJA8YNXVi97H4YVC14xkdgTgCws5lOnK9kj1WCR9Qhwg1QQiaVyMV4xFMyfQ2KQRzOm7wzU1NZjT0A8YEVGNAAjRsV2HQd7Knn33fdoXexVmazsCVOmgk6mYmG8QoxEAkoXOMYCEejOqhMVYFcS1LaWjnfeelfkJSHOy6KUcmyScqMB7/7d26V45OD+A5s2fQDNioqgEwVBwrhhxXbiVeVNLYaWYPM09GRcSng1+nb1P0za2Xd+R++VLrfY5ZYkey4I3/pozTGV7tEAAjqsNZqE8oNyXbHP+MLMQyWzGvo9keQWatwiPm92zc2rTmyXSLNOUhZcLY0ktEjUD80ND6JJSfhEVwoY4EuXTMkl9Qny/XmHisYc4SZ6uLF8/mS3bJR43SM1t4x875kDHfDVPElSC7IJff6r2SLvt5HrJ+wqmOnjFjo9V5Ki6c23rznaYFOzAUOsmG4oDtsJCxTz8fGzfJ2PmHtYZoVFpWlTLweQFfSku2GPbKq6Pn1Emi0fbrOdFHuoFCZddk5BWjHnlPYuQzg9eRSj/IKPnwws6VWWBpfmNUzqMO3csSdNag4s1EL6rH6P7B7U1szNoXw3NrTOnDk7L5fCyq4i5aHyI2gt6kXL0/ZrDmvPqtWPWjZ9VSYYiqU1pQ2a0Yv0wsuBFfviS68yzw/kofY0r/Qpwawe1P6ZPGUGcsGrR6vCET7Ti7z8IuwVjkuNEDP9wmN7RwAj5ibok4eRKPXPBF5BuEcWW6i0pzd/65+h7wAy9lK6B2qaC04kmY9Rvbb/oz3tLa2unaCPTKTI5s1bdFVzAL7jKlCQli7z0UP7d0Ohh0KhTZu3KLIRCIZRC5Yixhyq/ePnCU01/RuS4UQEOo1wVnw2qdbJvPeaPj9pW+4cf9ZKUrDS6Tnb87lph3/3TMNbjYR+Vsikbw3s1cmELcZ1c8/kTq3NWaLmr0mVrDHyp9d8ecmplUfcDmz60K+iQlTFlUUYzyg8aKWflTGIptLPX/KxOHoZJuSNenLduD3ZQ48WThPyZ7hZ49WSybGycadvnLF/4hZ/eYI0E1JhkwZCnqkg31xUnT/hLDdT4hYki1eTgokVi/YkKnlC731Jgs5HVVEQZEs16XtwaUC7HjH68xcsKSqGQoK7DR2JqYJSxDZKUfj0saBnr9defzvOwzuhbwvOmk3fj71EevoUdlZuVo98wFHau/+fn3kh/Zw81ZHvbdj8/R/8+FzKrFz21PZ3vvvD9e9t0g23obH14WEj2dWehfTlk6f//DxyCaKK2r/1T9/Jo0/K0jaPHTdJEDW0B9hBDDPx+hvvoEaWt6zvwMYmD3Khv7G4FI5QddavPyyNc/UOGfoIIEbJYHr5ikcRQ+O5nOKSsrXrnvj0iLEj2uANRiw7Be3249tuz87H0kJpOWX9r3r59bcsl+h2QtEdWK6iYhoOvS8BRsvLj7S1tdOnrtI/WVVWVcPXhLaG+S6KFIympqZTp07Jsozu7Np7YP+BI3DoEQagmgk9/fHz7xxIh0UiyYaguIKT/vClQV+w3lIrf2nECwNXCdwSt8cCqXRBqM+Uqv5j9/7zkoqhbwoLysnv33e/uaq555hjWZMai1c5PVYRbnqkYFbTwGnlEz5UKhP0YatoTAKpRBcdRdJUC277ef8dFomlaxJxdbQSevqMSlbvJdeM3J81+EQpQBwb4ybGuQkd2aNP959c/r21FcM3eBccsAa/6L9m9J6CMZWly4ysJYRb6BYuiF014/RbbcRjENchrhBOiBFUR7+lAMND+/jVn86CsWjz+Csqa+rqWxoa205XnD1xsupsTePFBCMIINIbKH0OurmlAzEooaa26YKCYo8eO41iq882HDx0LBCk7hpKYO8betoDu3bv/+OTzyxbvubpP7+wYeMWJGCvcyEZ2Dp2vAK5tu/Yg1bBYUCNsTjd9MsPn0CbK6tqIcDRdggA4qHydPrjPgK4yhIcKj/OasQ6gcgKvX2LSORC81D+yVNnEBOJwiwmqB2tRadwFYHO7590EWhQ1XAhCJypaTxdVXv81JmTFWd37TnY1hFk73LpVhIJEKZTbNBHFGBGs3d3wSsI9rR7m5pbYcxAtUOD4oirjU0t9NaKlaypb6lv8lBFY7hS+uMjnd8Xh37V6K+diDISMS0J67BFpLcIPC75zeqPes/zcAssbq6cO1/os5i/Ymls4PyOshkN1yz2lUytL5jaXLowVrRU4+ZI3Byt51KlYFz5fW/zu1Tiw94tU0uXmKrDhyiv2EfSH5IHrJJuY5U4aow48YQSxkKH6dlGyMgX2gc+tK33yKqyGeH8yZHsKeG86eGCae25E2uLp1ZfNbex74STV81q6rcozk3x91pNrn6c9J1R87PHG+thdMBCV003Hkoqgq1rvJYQbSLpF+YV84e5xFSBEkwPmGCvYiLygoIpRy4kY9mREpMNYTR8WnCJKT8EkJi98ooYCKpjXOKIklmxuIp4JENiZAedLBlKAOKgClwiEsmQkRXLegFBJDIC1lCYZ8WCb6RBJKsRWoPqo3QA/UU8kiEjAqgFkWgAAriEeDQp080LSJohXzAWiorAyHQICAO7EATAqCAbSMNLOsCVNLSNvnIDIw0spo0x+rgCs4yhX4EvAgAXkTB4cArdzEilb/Kl3/HEaef3bxmv9IcvxGKO4X03xxyfQd/se/VsqmTckYL5Qr/Vbtkat3CxnrtAzl+kFy2zs+aIRctMSPYcASj3Xm4WLpRzJlTf9ifPxhg1FWp5+lVhDB5ghcKzVInaPfTvFCRxxMCbquQqESvcQJK8GA1GZTeaJEei5MEnzl7z8IeDxleVTfYUgddpYs5MLXuO02Oemz1bK5obK5kdzJsVLpgb7ruELxh7/OsLT20MUDOaPjMgiEkpmtIUGDhYe5JzUV7BBKMTYUYqjmCic5rOgrnEVeQCCkylIdIfiHZO00VAA8qEssT0AxcgjEIYN8gOXFAaWzBIhlNGLZIBOAYTAwskoVIEkBdHBpPXF0YAySDIhaLQKghSIj0uISXicYTgKo5oCUpgWCMZohBGPGpB99EShjXaw3p3QQGO7CM3wNGwU+wFTFAbjklMs+IUsIIlhAUFI0D1K4xszD67TYEjSIUDB3WLMNWp6a+Y4QhqwSgKhxrPkMpe8/wErxBgL8uwOkhcdUOyG9ToFwKpwtuSun6pN2dsVb+lwkD68IrGzTJy1xIIt8Dh5uulK63+y8Q+s1qvWeD5wWMdb/pITYo0qKQtllYCuip0NBNNgJWM3QGwMuWq6jCIRGhWHby6UB0+vz/oj7kCIVvryMN/PH31/W9dPerItbOC/eeaPaa53ETCzSX5a0gubIAJ3sJ58evXKj2G7ho08oPHj9JvGfHooWhaAk9M3YV/KqgRxb0Er5hRNvFsdjFPmHiEMbUXE0w/m1eWi8V0TtBZ2JRj7sE0gABJKB+gsEgQiTSIQTJUjdIQQDLEgGbE4CoiEYMA1CoiUQ7jj6lDxCCMxiCAUwY9YlAOAiwvO7IYRipqRxYkQxZEosxgKM50ObqG2pGereGLCbiEZoWdigAwggCvYERgehewIgBwkQDxcQmAnrsTBz2KrZ/dmAOd7H4FUIYgHkfEQEAnCsGqgKoGjSifLYMuvCoyL6DfWHa4DEUFn74takBp1RAyfTe5YfqRPuMO95nrKZgX4eaK3BKHgjslmDs7eOXS0BVTTw0at+eBVyKbI/Tlqta0hapZROX5hMzDeBVDfmoi6za9mW8mBYPxylN7wJLVeNAx1HgcvkGCt+mHiPe0kfHPnf3+jH39H9rVZ2RNrykCN07nxiS4KYSbbRQtFntOhWFw9CtTdy/eKqDG+giJiTAEYli8mENDMzEHMcURrYvar2zOkIyBwmYdc4k5u6BAOSENhGkgTCpyIXwxYbmQEsBhVAEHBPXiEipibUAgUz6ARgK0CsWiLgCEvDhlLcQlZgGzGLDFykFiCMrHETYDkqGF6AUCKAQaFMlQMtqA6rBIUBTCKIRpYsSgKJwiGUpAGhxR9SWQZS+sg0WgExc1CMLsy2JQjYAVglPEM98L+hWAAkRACWRBKk6hR6FWwSsCOPKCBEGAmrPpD+QEwjw4hJa9KK9wqDEAWOmKouGylSRwv7widbxqXPKXM+S+Z+u/OH3fgMnl/efU9VvoKZvf+sW14RsWVvf//YZbpm9Zvj16hKcfxIwlSUQnGHistUiHJ6mJJOlEwkEG63lnK20PaCJMAsxJhLfo396wiJ6g9/lhyIYJqTPJ2g8DP56+7QvDt/zjxIrPT2u/cmKwzySo29CV85sHjtv3s0er/lJBKnl6U1ZziKpY8ShPvx6YNvjoF9cMB4OGHnYZcSaYGGg7TCrmhnEAPsBNl2QZwdRCwAGjjU0qyMDpBQWXkAaBDFsQZIR2RDyKQnZAg1OGKdKzNYNIHJGAXUUYDUMhOEUCHMEc0gM7XEUYR5yylEAQKVmrcAkZUSP4Ri60AWF0GX1kVaNetIQtBqRBFpSJZDhl7F5QMLCMV0YSdC1IBcSRuIxTDD+0I8Lso1qmiwbQJxOYNgWj2MjZKdjFETZAxqJlhgHmCxlRFGpBUagF+GINfMwrmgZeU5aly5IQjSXdBAyDUDiOIQvFtKhG/wIWVOaROHm9jiz4SL/vNe9Pnqz72ZP1P157cuhL9c+dSp6QSItB/Dp9fUrGEeuelwxJSsCK5GNYVugezICISe9ksRe/JN3SYGVC6aqUtohEFIf+6E+/YqTYXo34HPqMbIVMXj6RmPyK5751Db9e3XT76tZ/e8r/4Dvyc3Vkb5T4ABCmKm7x8J3TNp9qJIF+TDLQZ2w9Eibx3I2YroI5Yxww3YO8mCRMHqbwgoIZZaoLWRCGMkM3Oxf4acHE44j0WBUgCYJycIp4lhdVow1oCU5RMmpn7UEMBLVkoEfzEEYLEY+MCNBBTlu3IAxHppIRydBEFagOEDM6WbMRz0BkjCIxeoFI1gBMN464hNIY6BcU0MO4AbjAFAGABQFSOIXAKsDgQ+UhJibCCqKf+YA9gOkAlMAUUMKcRRhWLJAFrGgq0uASVbe6g7zgHgEIq6uzUF4Zsucl/VEDNf3X2Ogj/VRtQyOGTNJuk0aX1CRJVYqcSdIAThGJS0hAtTsATVvDKMdSaGk4ZWYrYA1a9KcsHBGOm+lfmalBTaT0Sw28Rnidohyx3JDtBu00sjYt3wMx6d/farRJVYKcSZBmm/5lOUGDeWyxPxyHfV9A9vSflRN0IGjRNqjseZeug94t/2XpjM5nC/1MBtWgf710LeFTwmFGGbKgLY3aOUmThymnv35pOv2QKqCMpIHzASY7TZ7FNndwLSKZBVGlNPT0NwjgjhYLOv3aBdQqYKWSfrc2aiZ5uIpwjWSiS0ST6XfmwBlKi1pWxLZCjgFBAAK4Ec/uhUHZQ0A2xg6epyvTO7vgFVej6Q9q4Jjm1XAUXBJxqfNwd8t/U7rQ8xny9+AVJQLZtJxTq52EvjIFFumTYjp9+w9opv9CJ33Zmr5pqGvppxPPpdE1CCx2SiqtOw0rM1vBKPhmgnAE5pdJjeiESO/HpkTDSb97jWLjFjAFrPRjGVFHimP3M+kTj7oeMzUeJi+WBDBNyLGUHIM/B0WOLsCWoPYG7GPKK33Ut5vXv4d0Ruez5e/DK9rByj0n9M1p4Js+Ypen3oIOBOmrqmkcGZfn6KTvr1KbgZoNEPaPVgxYDRt6EbxmPC0mgJUJnDAYZYTn4WskJKqYUUL6Mxn0U21RW4nbkmDxshnRjLCpBx3NT7/QIVNJyWEgmyaSfsya/XKW/jGCfkgLbQDW3fbA31w6o/PZ8vfgtcs5JN0yVEPDmHsIjace0jmLNiNpOCma9JNJLCV9LoEKwulfB+gf7YCkE9BPtggG/bhQ1LKhXxGmv9ZKESLFXIVP40VVePpTBmmx6LuQ8BPo9weMmKlHXDWcUMKuAsMDq4W+bcLqytTOup1uGP4hTDvSLX8ryUDyV8nfg1cYkUyAl6Rl/my2Cw+GHZmwz/ukP1pBwYWjcy6s2riUSYYSGbsUU5SZJjWtd9NfEkjbFTAkePrHXV0cEU9vbH3SkEAnGfRpoTo+rb9pCabGQ68jjGKZ8sYR1SENSgDEGY7TBNP2dBnxbvnvSIabv0r+Lrxq9Ou+aV8HR+qsMGHsaqqrK+cEYSaUXSWZOe2UgJbIQOkMKwiDK+aoEQjcMtUQgWyc+lV2yHZDNlW3cZMinu4h/WuapvKx6ArWCRVcQuFwv6j3Zp+72wAzALWA+IQSYXYCkEXP2b0CtCQz1t3y35fO6Hy2/M151ez/B0o0Iz8yx0rnAAAAAElFTkSuQmCC;" vertex="1" parent="10">
                    <mxGeometry x="487.79" y="180" width="101.03" height="30" as="geometry"/>
                </mxCell>
                <mxCell id="20" value="" style="rounded=0;whiteSpace=wrap;html=1;" vertex="1" parent="1">
                    <mxGeometry x="356.69" y="60" width="510" height="150" as="geometry"/>
                </mxCell>
                <mxCell id="24" style="edgeStyle=none;html=1;" edge="1" parent="1" source="22" target="23">
                    <mxGeometry relative="1" as="geometry"/>
                </mxCell>
                <mxCell id="22" value="Localhost:8765" style="sketch=0;points=[[0.015,0.015,0],[0.985,0.015,0],[0.985,0.985,0],[0.015,0.985,0],[0.25,0,0],[0.5,0,0],[0.75,0,0],[1,0.25,0],[1,0.5,0],[1,0.75,0],[0.75,1,0],[0.5,1,0],[0.25,1,0],[0,0.75,0],[0,0.5,0],[0,0.25,0]];verticalLabelPosition=bottom;html=1;verticalAlign=top;aspect=fixed;align=center;pointerEvents=1;shape=mxgraph.cisco19.rect;prIcon=host_based_security;fillColor=#FAFAFA;strokeColor=#005073;" vertex="1" parent="1">
                    <mxGeometry x="430.69" y="120" width="50" height="50" as="geometry"/>
                </mxCell>
                <mxCell id="23" value="server.py" style="html=1;whiteSpace=wrap;strokeColor=none;fillColor=#0079D6;labelPosition=center;verticalLabelPosition=middle;verticalAlign=top;align=center;fontSize=12;outlineConnect=0;spacingTop=-6;fontColor=#FFFFFF;sketch=0;shape=mxgraph.sitemap.script;" vertex="1" parent="1">
                    <mxGeometry x="586.69" y="110" width="120" height="70" as="geometry"/>
                </mxCell>
                <mxCell id="25" style="edgeStyle=none;html=1;entryX=0.5;entryY=0;entryDx=0;entryDy=0;entryPerimeter=0;rounded=0;curved=0;" edge="1" parent="1" source="23" target="16">
                    <mxGeometry relative="1" as="geometry">
                        <Array as="points">
                            <mxPoint x="755.69" y="145"/>
                        </Array>
                    </mxGeometry>
                </mxCell>
                <mxCell id="27" value="Local Development" style="text;strokeColor=none;align=center;fillColor=none;html=1;verticalAlign=middle;whiteSpace=wrap;rounded=0;" vertex="1" parent="1">
                    <mxGeometry x="556.69" y="80" width="140" height="30" as="geometry"/>
                </mxCell>
            </root>
        </mxGraphModel>
    </diagram>
</mxfile>